<?xml version="1.0" encoding="UTF-8"?>
<svg xmlns="http://www.w3.org/2000/svg" xmlns:xlink="http://www.w3.org/1999/xlink" width="3500pt" height="1000pt" viewBox="0 0 3500 1000" version="1.2">
<g id="surface1" transform="transform(1750,1000)">
<g id="surface1" transform="translate(0,-35)">
<g id="surface1" transform="rotate(1)">

<!-- Ocean -->
<path style="stroke:none;fill-rule:evenodd;fill:rgb(66.666667%,82.745098%,87.45098%);fill-opacity:1;" d="M 3500 -50 L 1945.679688 -23.761719 L 1946.316406 31.359375 L 2061.921875 29.183594 L 2065.101562 124.207031 L 2156.757812 123.105469 L 2157.195312 190.808594 L 2877.011719 180.59375 L 2875.324219 439.847656 L -163.039062 503.574219 L -239.015625 975.988281 L 19.359375 944.558594 L 63.242188 930.066406 L 61.433594 910.222656 L 146.113281 909.039062 L 167.933594 939.878906 L 227.335938 938.160156 L 247.050781 1200 L 511.847656 1200 L 504.234375 978.515625 L 577.269531 978 L 596.585938 968.351562 L 774.8125 929688 L 775.765625 234375 L 843.433594 970.398438 L 843.914062 974.941406 L 1031.082031 970.71875 L 1030.425781 938.644531 L 1179.335938 935.875 L 1178.542969 990.480469 L 1173.535156 990.480469 L 1175.402344 1200 L 1294.304688 1200 L 1288.640625 912.132812 L 2225.179688 883.738281 L 3657.78125 854.539062"/>

</g>
</g>
</g>
</svg>