<?xml version="1.0" encoding="UTF-8"?>
<svg xmlns="http://www.w3.org/2000/svg" xmlns:xlink="http://www.w3.org/1999/xlink" width="3500pt" height="1000pt" viewBox="0 0 3500 1000" version="1.2">

<!-- Transformation -->
<g id="surface1" transform="transform(1750,1000)">
<g id="surface1" transform="translate(0,-35)">
<g id="surface1" transform="rotate(1)">

<!-- Outline -->
<rect x="0" y="0" width="3520" height="1200" style="fill:rgb(94.901961%,93.72549%,91.372549%);fill-opacity:1;stroke:none;"/>

<path style="stroke:none;fill-rule:evenodd;fill:rgb(78.039216%,78.039216%,70.588235%);fill-opacity:1;" d="M 507.554688 95.730469 L 806.96875 91.429688 L 843.714844 24.101562 L 633.691406 -109.402344 Z M 507.554688 95.730469 "/>
<path style="fill-rule:evenodd;fill:rgb(94.901961%,85.490196%,85.098039%);fill-opacity:1;stroke-width:0.7;stroke-linecap:butt;stroke-linejoin:miter;stroke:rgb(81.960784%,69.803922%,69.019608%);stroke-opacity:1;stroke-miterlimit:4;" d="M -214.273438 384.621094 L -213.257812 472.222656 L -177.707031 503.871094 L -163.039062 503.574219 L 92.335938 497.578125 L 2875.324219 439.847656 L 2877.011719 180.59375 L 2157.195312 190.808594 L 2129.769531 295.59375 L 1994.984375 300.109375 L 1965.394531 322.160156 L 1922.128906 343.050781 L 1814.734375 347.730469 L 1808.253906 182.851562 L 1805.769531 167.980469 L 1804.199219 158.515625 L 1785.359375 138.351562 L 1762.289062 123.425781 L 1738.101562 116.972656 L 559.839844 137.894531 L 403.695312 140.664062 L 408.285156 357.300781 L 70.773438 363.460938 L 63.835938 368.972656 L -11.066406 370.207031 L -18.101562 365.074219 L -34.734375 365.503906 L -34.140625 391.34375 L -53.65625 391.855469 L -53.773438 397.125 L -174.328125 399.058594 L -180.386719 386.316406 L -186.945312 377.84375 L -207.316406 369.859375 Z M -214.273438 384.621094 "/>
<path style="fill-rule:evenodd;fill:rgb(92.156863%,85.882353%,90.980392%);fill-opacity:1;stroke-width:0.7;stroke-linecap:butt;stroke-linejoin:miter;stroke:rgb(77.647059%,70.196078%,76.470588%);stroke-opacity:1;stroke-miterlimit:4;" d="M 1851.757812 426.433594 L 2844.71875 413.445312 L 2845.355469 200.4375 L 2187.839844 208.90625 L 1851.757812 213.234375 Z M 1851.757812 426.433594 "/>
<path style="fill-rule:evenodd;fill:rgb(93.333333%,93.333333%,93.333333%);fill-opacity:1;stroke-width:0.3;stroke-linecap:butt;stroke-linejoin:miter;stroke:rgb(62.745098%,43.921569%,43.921569%);stroke-opacity:1;stroke-miterlimit:4;" d="M 275.769531 -3.59375 L 288.585938 4.472656 L 399.183594 74.195312 L 426.964844 91.726562 L 433.941406 80.675781 L 451.488281 52.816406 L 489.746094 76.9375 L 610.140625 -114.027344 L 420.6875 -233.46875 Z M 275.769531 -3.59375 "/>
<path style="fill-rule:evenodd;fill:rgb(93.333333%,93.333333%,93.333333%);fill-opacity:1;stroke-width:0.3;stroke-linecap:butt;stroke-linejoin:miter;stroke:rgb(62.745098%,43.921569%,43.921569%);stroke-opacity:1;stroke-miterlimit:4;" d="M -168.882812 471.121094 L 170.0625 466.226562 L 170.699219 455.121094 L 180.714844 455.121094 L 178.507812 376.5 L -29.785156 379.324219 L -29.347656 398.789062 L -168.445312 400.941406 Z M -168.882812 471.121094 "/>
<path style="fill-rule:evenodd;fill:rgb(93.333333%,93.333333%,93.333333%);fill-opacity:1;stroke-width:0.3;stroke-linecap:butt;stroke-linejoin:miter;stroke:rgb(62.745098%,43.921569%,43.921569%);stroke-opacity:1;stroke-miterlimit:4;" d="M 209.550781 167.578125 L 212.410156 329.554688 L 375.375 326.675781 L 376.707031 326.648438 L 373.824219 164.675781 Z M 209.550781 167.578125 "/>
<path style="fill-rule:evenodd;fill:rgb(93.333333%,93.333333%,93.333333%);fill-opacity:1;stroke-width:0.3;stroke-linecap:butt;stroke-linejoin:miter;stroke:rgb(62.745098%,43.921569%,43.921569%);stroke-opacity:1;stroke-miterlimit:4;" d="M 382.628906 397.632812 L 383.046875 419.304688 L 383.683594 451.167969 L 547.898438 447.914062 L 545.890625 346.761719 L 417.765625 349.289062 L 414.328125 349.371094 L 415.261719 396.988281 Z M 382.628906 397.632812 "/>
<path style="fill-rule:evenodd;fill:rgb(93.333333%,93.333333%,93.333333%);fill-opacity:1;stroke-width:0.3;stroke-linecap:butt;stroke-linejoin:miter;stroke:rgb(62.745098%,43.921569%,43.921569%);stroke-opacity:1;stroke-miterlimit:4;" d="M 217.578125 454.691406 L 377.0625 451.113281 L 376.148438 361.417969 L 231.808594 363.164062 L 217.578125 368.945312 Z M 217.578125 454.691406 "/>
<path style="fill-rule:evenodd;fill:rgb(93.333333%,93.333333%,93.333333%);fill-opacity:1;stroke-width:0.3;stroke-linecap:butt;stroke-linejoin:miter;stroke:rgb(62.745098%,43.921569%,43.921569%);stroke-opacity:1;stroke-miterlimit:4;" d="M 550.203125 148.324219 L 551.792969 196.132812 L 810.027344 187.53125 L 808.417969 139.722656 Z M 550.203125 148.324219 "/>
<path style="stroke:none;fill-rule:evenodd;fill:rgb(78.431373%,98.039216%,80%);fill-opacity:1;" d="M 1914.28125 55.316406 L 1915.492188 130.070312 L 2063.628906 127.675781 L 2062.417969 53.273438 L 2051.882812 53.464844 L 2051.746094 43.972656 L 1988.90625 45.019531 L 1969.289062 54.429688 Z M 1914.28125 55.316406 "/>
<path style="fill-rule:evenodd;fill:rgb(93.333333%,93.333333%,93.333333%);fill-opacity:1;stroke-width:0.3;stroke-linecap:butt;stroke-linejoin:miter;stroke:rgb(62.745098%,43.921569%,43.921569%);stroke-opacity:1;stroke-miterlimit:4;" d="M 1647.933594 121.085938 L 1649.265625 169.058594 L 1759.425781 171.316406 L 1763.878906 274.351562 L 1803.84375 275.238281 L 1800.304688 165.507812 L 1774.527344 137.542969 L 1737.207031 122.003906 Z M 1647.933594 121.085938 "/>
<path style="fill-rule:evenodd;fill:rgb(93.333333%,93.333333%,93.333333%);fill-opacity:1;stroke-width:0.3;stroke-linecap:butt;stroke-linejoin:miter;stroke:rgb(62.745098%,43.921569%,43.921569%);stroke-opacity:1;stroke-miterlimit:4;" d="M 1450.570312 127.648438 L 1451.921875 173.601562 L 1640.285156 168.0625 L 1638.933594 122.109375 Z M 1450.570312 127.648438 "/>
<path style="fill-rule:evenodd;fill:rgb(93.333333%,93.333333%,93.333333%);fill-opacity:1;stroke-width:0.3;stroke-linecap:butt;stroke-linejoin:miter;stroke:rgb(62.745098%,43.921569%,43.921569%);stroke-opacity:1;stroke-miterlimit:4;" d="M -72.535156 160.695312 L -71.519531 193.632812 L 188.265625 185.539062 L 187.230469 152.628906 Z M -72.535156 160.695312 "/>
<path style="fill-rule:evenodd;fill:rgb(93.333333%,93.333333%,93.333333%);fill-opacity:1;stroke-width:0.3;stroke-linecap:butt;stroke-linejoin:miter;stroke:rgb(62.745098%,43.921569%,43.921569%);stroke-opacity:1;stroke-miterlimit:4;" d="M 849.515625 139.613281 L 849.816406 186.265625 L 1013.710938 185.21875 L 1013.414062 138.566406 Z M 849.515625 139.613281 "/>
<path style="fill-rule:evenodd;fill:rgb(93.333333%,93.333333%,93.333333%);fill-opacity:1;stroke-width:0.3;stroke-linecap:butt;stroke-linejoin:miter;stroke:rgb(62.745098%,43.921569%,43.921569%);stroke-opacity:1;stroke-miterlimit:4;" d="M 1249.828125 130.285156 L 1250.503906 176.882812 L 1413.964844 174.460938 L 1413.269531 127.863281 Z M 1249.828125 130.285156 "/>
<path style="fill-rule:evenodd;fill:rgb(93.333333%,93.333333%,93.333333%);fill-opacity:1;stroke-width:0.3;stroke-linecap:butt;stroke-linejoin:miter;stroke:rgb(62.745098%,43.921569%,43.921569%);stroke-opacity:1;stroke-miterlimit:4;" d="M 1055.984375 138.96875 L 1057.09375 182.796875 L 1211.3125 178.953125 L 1210.222656 135.097656 Z M 1055.984375 138.96875 "/>
<path style="fill-rule:evenodd;fill:rgb(93.333333%,93.333333%,93.333333%);fill-opacity:1;stroke-width:0.3;stroke-linecap:butt;stroke-linejoin:miter;stroke:rgb(62.745098%,43.921569%,43.921569%);stroke-opacity:1;stroke-miterlimit:4;" d="M -82.253906 12.886719 L -65.222656 24.90625 L 10.121094 -81.761719 L -6.914062 -93.808594 Z M -82.253906 12.886719 "/>
<path style="stroke:none;fill-rule:evenodd;fill:rgb(93.333333%,89.803922%,86.27451%);fill-opacity:1;" d="M 2062.972656 60.507812 L 2065.101562 124.207031 L 2109.21875 123.667969 L 2108.425781 109.5 L 2107.53125 97.535156 L 2105.5625 83.011719 L 2099.757812 70.269531 L 2083.78125 62.148438 Z M 2062.972656 60.507812 "/>
<path style="stroke:none;fill-rule:evenodd;fill:rgb(94.901961%,93.72549%,91.372549%);fill-opacity:1;" d="M -74.441406 514.488281 L 82.675781 510.511719 L 82.519531 506.476562 L 82.378906 503.007812 L -74.363281 506.449219 L -74.402344 510.347656 Z M -74.441406 514.488281 "/>
<path style="stroke:none;fill-rule:evenodd;fill:rgb(94.901961%,93.72549%,91.372549%);fill-opacity:1;" d="M 2088.988281 25.550781 L 2089.503906 54.78125 L 2172.554688 54.671875 L 2172.378906 39.292969 L 2172.398438 24.074219 Z M 2088.988281 25.550781 "/>
<path style="fill-rule:evenodd;fill:rgb(85.098039%,81.568627%,78.823529%);fill-opacity:1;stroke-width:0.75;stroke-linecap:butt;stroke-linejoin:miter;stroke:rgb(72.54902%,66.27451%,61.176471%);stroke-opacity:1;stroke-miterlimit:4;" d="M 1989.820312 306.539062 L 1993.15625 414.84375 L 2832.832031 399.085938 L 2829.613281 268.4375 L 2137.578125 287.984375 L 2138.035156 304.25 Z M 1989.820312 306.539062 "/>
<path style="fill-rule:evenodd;fill:rgb(85.098039%,81.568627%,78.823529%);fill-opacity:1;stroke-width:0.75;stroke-linecap:butt;stroke-linejoin:miter;stroke:rgb(72.54902%,66.27451%,61.176471%);stroke-opacity:1;stroke-miterlimit:4;" d="M 549.367188 371.660156 L 549.507812 378.542969 L 549.785156 391.449219 L 550.898438 445.28125 L 744.40625 441.246094 L 1776.417969 417.960938 L 1775.484375 359.453125 L 1775.183594 342.136719 L 1442.265625 353 L 1241.085938 357.222656 L 1040.261719 361.417969 L 839.023438 365.609375 L 640.03125 369.777344 Z M 549.367188 371.660156 "/>
<path style="fill-rule:evenodd;fill:rgb(85.098039%,81.568627%,78.823529%);fill-opacity:1;stroke-width:0.75;stroke-linecap:butt;stroke-linejoin:miter;stroke:rgb(72.54902%,66.27451%,61.176471%);stroke-opacity:1;stroke-miterlimit:4;" d="M 275.769531 -3.59375 L 288.585938 4.472656 L 399.183594 74.195312 L 426.964844 91.726562 L 433.941406 80.675781 L 451.488281 52.816406 L 489.746094 76.9375 L 610.140625 -114.027344 L 420.6875 -233.46875 Z M 275.769531 -3.59375 "/>
<path style="fill-rule:evenodd;fill:rgb(85.098039%,81.568627%,78.823529%);fill-opacity:1;stroke-width:0.75;stroke-linecap:butt;stroke-linejoin:miter;stroke:rgb(72.54902%,66.27451%,61.176471%);stroke-opacity:1;stroke-miterlimit:4;" d="M 84.070312 35.878906 L 111.871094 53.113281 L 217.460938 50.855469 L 403.875 -244.816406 L 301.664062 -309.269531 Z M 84.070312 35.878906 "/>
<path style="fill-rule:evenodd;fill:rgb(85.098039%,81.568627%,78.823529%);fill-opacity:1;stroke-width:0.75;stroke-linecap:butt;stroke-linejoin:miter;stroke:rgb(72.54902%,66.27451%,61.176471%);stroke-opacity:1;stroke-miterlimit:4;" d="M 547.023438 211.324219 L 549.050781 305.085938 L 636.472656 303.203125 L 836.816406 298.902344 L 950.394531 296.453125 L 948.367188 202.695312 Z M 547.023438 211.324219 "/>
<path style="fill-rule:evenodd;fill:rgb(85.098039%,81.568627%,78.823529%);fill-opacity:1;stroke-width:0.75;stroke-linecap:butt;stroke-linejoin:miter;stroke:rgb(72.54902%,66.27451%,61.176471%);stroke-opacity:1;stroke-miterlimit:4;" d="M -117.925781 214.042969 L -116.496094 276.691406 L -41.929688 274.996094 L -41.570312 290.941406 L -0.59375 290.027344 L -0.949219 274.621094 L 68.785156 273.035156 L 69.242188 293.308594 L 87.925781 292.878906 L 88.699219 327.347656 L 196.511719 324.875 L 193.589844 196.484375 L -96.761719 203.070312 L -96.523438 213.558594 Z M -117.925781 214.042969 "/>
<path style="fill-rule:evenodd;fill:rgb(85.098039%,81.568627%,78.823529%);fill-opacity:1;stroke-width:0.75;stroke-linecap:butt;stroke-linejoin:miter;stroke:rgb(72.54902%,66.27451%,61.176471%);stroke-opacity:1;stroke-miterlimit:4;" d="M -74.34375 95.488281 L -42.167969 115.789062 L 298.144531 108.585938 L 296.894531 49.160156 L 217.460938 50.855469 L 111.871094 53.113281 L 84.070312 35.878906 L -2.402344 -18.625 Z M -74.34375 95.488281 "/>
<path style="fill-rule:evenodd;fill:rgb(85.098039%,81.568627%,78.823529%);fill-opacity:1;stroke-width:0.75;stroke-linecap:butt;stroke-linejoin:miter;stroke:rgb(72.54902%,66.27451%,61.176471%);stroke-opacity:1;stroke-miterlimit:4;" d="M -207.414062 -66.621094 L -86.328125 19.179688 L -82.253906 12.886719 L -6.914062 -93.808594 L 5.449219 -111.3125 L -114.945312 -196.605469 L -138.136719 -163.636719 L -144.617188 -168.234375 L -159.460938 -147.101562 L -153.441406 -142.824219 L -187.800781 -93.96875 L -194.082031 -98.433594 L -203.582031 -84.878906 L -197.578125 -80.632812 Z M -207.414062 -66.621094 "/>
<path style="fill-rule:evenodd;fill:rgb(85.098039%,81.568627%,78.823529%);fill-opacity:1;stroke-width:0.75;stroke-linecap:butt;stroke-linejoin:miter;stroke:rgb(72.54902%,66.27451%,61.176471%);stroke-opacity:1;stroke-miterlimit:4;" d="M 1550.972656 189.707031 L 1553 283.46875 L 1754.179688 279.113281 L 1752.152344 185.351562 Z M 1550.972656 189.707031 "/>
<path style="fill-rule:evenodd;fill:rgb(85.098039%,81.568627%,78.823529%);fill-opacity:1;stroke-width:0.75;stroke-linecap:butt;stroke-linejoin:miter;stroke:rgb(72.54902%,66.27451%,61.176471%);stroke-opacity:1;stroke-miterlimit:4;" d="M 1349.8125 194.035156 L 1351.839844 287.796875 L 1439.601562 285.914062 L 1553 283.46875 L 1550.972656 189.707031 Z M 1349.8125 194.035156 "/>
<path style="fill-rule:evenodd;fill:rgb(85.098039%,81.568627%,78.823529%);fill-opacity:1;stroke-width:0.75;stroke-linecap:butt;stroke-linejoin:miter;stroke:rgb(72.54902%,66.27451%,61.176471%);stroke-opacity:1;stroke-miterlimit:4;" d="M 948.367188 202.695312 L 950.394531 296.453125 L 1039.804688 294.519531 L 1151.433594 292.125 L 1149.40625 198.367188 Z M 948.367188 202.695312 "/>
<path style="fill-rule:evenodd;fill:rgb(85.098039%,81.568627%,78.823529%);fill-opacity:1;stroke-width:0.75;stroke-linecap:butt;stroke-linejoin:miter;stroke:rgb(72.54902%,66.27451%,61.176471%);stroke-opacity:1;stroke-miterlimit:4;" d="M 1149.40625 198.367188 L 1151.433594 292.125 L 1237.945312 290.242188 L 1351.839844 287.796875 L 1349.8125 194.035156 Z M 1149.40625 198.367188 "/>
<path style="fill-rule:evenodd;fill:rgb(85.098039%,81.568627%,78.823529%);fill-opacity:1;stroke-width:0.75;stroke-linecap:butt;stroke-linejoin:miter;stroke:rgb(72.54902%,66.27451%,61.176471%);stroke-opacity:1;stroke-miterlimit:4;" d="M 935.3125 44.886719 L 936.921875 89.949219 L 1068.980469 84.25 L 1067.984375 41.660156 Z M 935.3125 44.886719 "/>
<path style="fill-rule:evenodd;fill:rgb(85.098039%,81.568627%,78.823529%);fill-opacity:1;stroke-width:0.75;stroke-linecap:butt;stroke-linejoin:miter;stroke:rgb(72.54902%,66.27451%,61.176471%);stroke-opacity:1;stroke-miterlimit:4;" d="M 1577.046875 18.15625 L 1577.640625 48.8125 L 1623.492188 47.925781 L 1623.75 61.207031 L 1647.578125 60.722656 L 1647.320312 47.707031 L 1712.1875 46.417969 L 1711.75 24.851562 L 1692.828125 25.230469 L 1692.628906 15.84375 Z M 1577.046875 18.15625 "/>
<path style="fill-rule:evenodd;fill:rgb(85.098039%,81.568627%,78.823529%);fill-opacity:1;stroke-width:0.75;stroke-linecap:butt;stroke-linejoin:miter;stroke:rgb(72.54902%,66.27451%,61.176471%);stroke-opacity:1;stroke-miterlimit:4;" d="M 1843.667969 131.601562 L 1844.085938 189.652344 L 1854.460938 189.574219 L 1854.5 195.328125 L 1875.925781 195.164062 L 1875.882812 189.277344 L 1883.714844 189.222656 L 1883.4375 152.304688 L 1912.472656 152.089844 L 1912.332031 131.0625 Z M 1843.667969 131.601562 "/>
<path style="fill-rule:evenodd;fill:rgb(85.098039%,81.568627%,78.823529%);fill-opacity:1;stroke-width:0.75;stroke-linecap:butt;stroke-linejoin:miter;stroke:rgb(72.54902%,66.27451%,61.176471%);stroke-opacity:1;stroke-miterlimit:4;" d="M 1295.0625 51.5 L 1295.578125 78.980469 L 1384.472656 77.207031 L 1383.914062 49.699219 Z M 1295.0625 51.5 "/>
<path style="fill-rule:evenodd;fill:rgb(85.098039%,81.568627%,78.823529%);fill-opacity:1;stroke-width:0.75;stroke-linecap:butt;stroke-linejoin:miter;stroke:rgb(72.54902%,66.27451%,61.176471%);stroke-opacity:1;stroke-miterlimit:4;" d="M 1886.117188 178.738281 L 1886.140625 180.082031 L 1886.238281 181.425781 L 1886.398438 182.769531 L 1886.636719 184.0625 L 1886.953125 185.378906 L 1887.332031 186.667969 L 1887.75 187.933594 L 1888.246094 189.167969 L 1888.820312 190.378906 L 1889.476562 191.5625 L 1890.152344 192.691406 L 1890.910156 193.820312 L 1891.722656 194.898438 L 1892.578125 195.917969 L 1893.492188 196.886719 L 1894.445312 197.800781 L 1895.460938 198.6875 L 1896.511719 199.523438 L 1897.625 200.273438 L 1898.757812 200.972656 L 1899.910156 201.644531 L 1901.105469 202.210938 L 1902.355469 202.75 L 1903.609375 203.179688 L 1904.878906 203.582031 L 1906.191406 203.90625 L 1907.484375 204.148438 L 1908.816406 204.335938 L 1910.144531 204.441406 L 1911.496094 204.496094 L 1912.808594 204.441406 L 1914.140625 204.363281 L 1915.472656 204.199219 L 1916.804688 203.957031 L 1918.074219 203.664062 L 1919.386719 203.285156 L 1920.640625 202.855469 L 1921.871094 202.316406 L 1923.082031 201.78125 L 1924.277344 201.136719 L 1925.410156 200.4375 L 1926.503906 199.683594 L 1927.554688 198.875 L 1928.609375 197.988281 L 1929.5625 197.074219 L 1930.496094 196.132812 L 1931.371094 195.113281 L 1932.164062 194.0625 L 1932.941406 192.933594 L 1933.65625 191.804688 L 1934.292969 190.621094 L 1934.867188 189.410156 L 1935.386719 188.175781 L 1935.84375 186.9375 L 1936.21875 185.648438 L 1936.539062 184.355469 L 1937.234375 182.3125 L 1937.730469 181.398438 L 1937.730469 180.136719 L 1937.75 178.84375 L 1937.015625 176.34375 L 1936.835938 175.027344 L 1936.597656 173.683594 L 1936.300781 172.390625 L 1935.941406 171.101562 L 1935.484375 169.835938 L 1934.988281 168.601562 L 1934.410156 167.390625 L 1933.796875 166.207031 L 1933.101562 165.050781 L 1932.34375 163.949219 L 1931.550781 162.871094 L 1930.675781 161.851562 L 1929.78125 160.882812 L 1928.808594 159.941406 L 1927.773438 159.082031 L 1926.71875 158.246094 L 1925.648438 157.496094 L 1924.515625 156.769531 L 1923.34375 156.152344 L 1922.128906 155.558594 L 1920.898438 155.019531 L 1919.644531 154.5625 L 1918.355469 154.1875 L 1917.082031 153.863281 L 1915.75 153.597656 L 1914.417969 153.433594 L 1913.105469 153.328125 L 1911.777344 153.273438 L 1910.425781 153.300781 L 1909.09375 153.40625 L 1907.761719 153.570312 L 1906.46875 153.785156 L 1905.15625 154.105469 L 1903.886719 154.484375 L 1902.613281 154.914062 L 1901.363281 155.453125 L 1900.148438 156.015625 L 1898.996094 156.632812 L 1897.863281 157.332031 L 1896.75 158.085938 L 1895.679688 158.894531 L 1894.664062 159.753906 L 1893.691406 160.667969 L 1892.777344 161.636719 L 1891.902344 162.65625 L 1891.066406 163.707031 L 1890.3125 164.808594 L 1889.617188 165.964844 L 1888.960938 167.148438 L 1888.363281 168.332031 L 1887.847656 169.566406 L 1887.410156 170.832031 L 1887.011719 172.121094 L 1886.695312 173.414062 L 1886.457031 174.757812 L 1886.277344 176.046875 L 1886.140625 177.417969 Z M 1886.117188 178.738281 "/>
<path style="fill-rule:evenodd;fill:rgb(85.098039%,81.568627%,78.823529%);fill-opacity:1;stroke-width:0.75;stroke-linecap:butt;stroke-linejoin:miter;stroke:rgb(72.54902%,66.27451%,61.176471%);stroke-opacity:1;stroke-miterlimit:4;" d="M 1987.652344 177.527344 L 1987.671875 178.871094 L 1987.773438 180.1875 L 1987.949219 181.507812 L 1988.1875 182.824219 L 1988.46875 184.113281 L 1988.84375 185.351562 L 1989.28125 186.613281 L 1989.777344 187.824219 L 1990.355469 189.0625 L 1990.972656 190.21875 L 1991.628906 191.347656 L 1992.382812 192.449219 L 1993.199219 193.5 L 1994.03125 194.519531 L 1994.945312 195.488281 L 1995.898438 196.402344 L 1996.894531 197.261719 L 1997.949219 198.070312 L 1999.019531 198.824219 L 2000.152344 199.546875 L 2001.304688 200.167969 L 2002.476562 200.757812 L 2003.710938 201.269531 L 2004.941406 201.726562 L 2006.214844 202.101562 L 2007.488281 202.398438 L 2008.796875 202.667969 L 2010.089844 202.828125 L 2011.421875 202.964844 L 2012.753906 202.992188 L 2014.042969 202.992188 L 2015.375 202.855469 L 2016.6875 202.695312 L 2017.980469 202.480469 L 2019.273438 202.15625 L 2020.542969 201.808594 L 2021.777344 201.378906 L 2023.007812 200.867188 L 2024.199219 200.300781 L 2025.371094 199.683594 L 2026.484375 198.984375 L 2027.578125 198.230469 L 2028.652344 197.453125 L 2029.644531 196.589844 L 2030.621094 195.703125 L 2031.535156 194.734375 L 2032.386719 193.714844 L 2033.203125 192.691406 L 2033.957031 191.589844 L 2034.652344 190.460938 L 2035.308594 189.304688 L 2035.867188 188.09375 L 2036.382812 186.882812 L 2036.820312 185.621094 L 2037.21875 184.382812 L 2037.535156 183.09375 L 2037.773438 181.773438 L 2037.953125 180.457031 L 2038.050781 179.140625 L 2038.113281 177.824219 L 2038.070312 176.476562 L 2037.992188 175.1875 L 2037.832031 173.84375 L 2037.59375 172.550781 L 2037.277344 171.261719 L 2036.898438 170 L 2036.480469 168.734375 L 2035.984375 167.523438 L 2035.429688 166.3125 L 2034.792969 165.132812 L 2034.117188 164.003906 L 2033.382812 162.898438 L 2032.566406 161.851562 L 2031.730469 160.828125 L 2030.816406 159.886719 L 2029.84375 158.972656 L 2028.871094 158.085938 L 2027.816406 157.28125 L 2026.722656 156.527344 L 2025.632812 155.828125 L 2024.4375 155.183594 L 2023.265625 154.617188 L 2022.035156 154.105469 L 2020.820312 153.621094 L 2019.53125 153.273438 L 2018.257812 152.949219 L 2016.964844 152.683594 L 2015.65625 152.519531 L 2014.324219 152.414062 L 2013.03125 152.359375 L 2011.699219 152.386719 L 2010.367188 152.492188 L 2009.078125 152.65625 L 2007.765625 152.898438 L 2006.492188 153.191406 L 2005.199219 153.542969 L 2003.96875 154 L 2002.738281 154.511719 L 2001.5625 155.046875 L 2000.390625 155.667969 L 1999.257812 156.367188 L 1998.164062 157.117188 L 1997.113281 157.898438 L 1996.117188 158.785156 L 1995.144531 159.699219 L 1994.210938 160.640625 L 1993.375 161.636719 L 1992.542969 162.683594 L 1991.785156 163.761719 L 1991.109375 164.890625 L 1990.476562 166.046875 L 1989.898438 167.253906 L 1989.382812 168.464844 L 1988.945312 169.730469 L 1988.546875 170.992188 L 1988.25 172.285156 L 1987.992188 173.574219 L 1987.792969 174.890625 L 1987.691406 176.210938 Z M 1987.652344 177.527344 "/>
<path style="fill-rule:evenodd;fill:rgb(85.098039%,81.568627%,78.823529%);fill-opacity:1;stroke-width:0.75;stroke-linecap:butt;stroke-linejoin:miter;stroke:rgb(72.54902%,66.27451%,61.176471%);stroke-opacity:1;stroke-miterlimit:4;" d="M 2039.421875 176.71875 L 2039.441406 178.039062 L 2039.5625 179.355469 L 2039.722656 180.644531 L 2039.960938 181.9375 L 2040.238281 183.199219 L 2040.617188 184.464844 L 2041.03125 185.699219 L 2041.511719 186.910156 L 2042.085938 188.09375 L 2042.703125 189.277344 L 2043.378906 190.378906 L 2044.113281 191.480469 L 2044.910156 192.53125 L 2045.742188 193.527344 L 2046.636719 194.464844 L 2047.570312 195.40625 L 2048.585938 196.242188 L 2049.617188 197.046875 L 2050.671875 197.800781 L 2051.804688 198.5 L 2052.9375 199.117188 L 2054.109375 199.683594 L 2055.300781 200.222656 L 2056.535156 200.652344 L 2057.785156 201.027344 L 2059.058594 201.351562 L 2060.351562 201.59375 L 2061.640625 201.78125 L 2062.953125 201.859375 L 2064.246094 201.941406 L 2065.558594 201.886719 L 2066.847656 201.808594 L 2068.160156 201.644531 L 2069.433594 201.402344 L 2070.722656 201.082031 L 2071.976562 200.730469 L 2073.207031 200.300781 L 2074.421875 199.816406 L 2075.59375 199.253906 L 2076.765625 198.632812 L 2077.878906 197.960938 L 2078.972656 197.210938 L 2080.003906 196.429688 L 2081 195.597656 L 2081.953125 194.683594 L 2082.847656 193.742188 L 2083.722656 192.746094 L 2084.515625 191.695312 L 2085.25 190.621094 L 2085.945312 189.519531 L 2086.5625 188.363281 L 2087.140625 187.179688 L 2087.636719 185.96875 L 2088.09375 184.734375 L 2088.472656 183.46875 L 2088.789062 182.207031 L 2089.007812 180.914062 L 2089.207031 179.625 L 2089.324219 178.332031 L 2089.34375 176.988281 L 2089.324219 175.671875 L 2089.246094 174.382812 L 2089.046875 173.089844 L 2088.847656 171.773438 L 2088.550781 170.535156 L 2088.191406 169.273438 L 2087.734375 168.035156 L 2087.257812 166.796875 L 2086.683594 165.617188 L 2086.085938 164.460938 L 2085.390625 163.328125 L 2084.675781 162.253906 L 2083.878906 161.207031 L 2083.027344 160.210938 L 2082.132812 159.242188 L 2081.199219 158.328125 L 2080.222656 157.46875 L 2079.191406 156.660156 L 2078.097656 155.910156 L 2077.003906 155.238281 L 2075.851562 154.589844 L 2074.660156 154.027344 L 2073.464844 153.515625 L 2072.234375 153.085938 L 2070.980469 152.707031 L 2069.710938 152.386719 L 2068.4375 152.144531 L 2067.125 151.957031 L 2065.835938 151.847656 L 2064.523438 151.792969 L 2063.230469 151.847656 L 2061.921875 151.929688 L 2060.609375 152.089844 L 2059.335938 152.332031 L 2058.066406 152.628906 L 2056.792969 152.976562 L 2055.5625 153.40625 L 2054.367188 153.917969 L 2053.175781 154.457031 L 2052.042969 155.101562 L 2050.910156 155.773438 L 2049.835938 156.5 L 2048.804688 157.308594 L 2047.769531 158.140625 L 2046.835938 159.054688 L 2045.941406 159.996094 L 2045.085938 160.992188 L 2044.273438 162.011719 L 2043.535156 163.113281 L 2042.839844 164.21875 L 2042.207031 165.375 L 2041.628906 166.53125 L 2041.132812 167.765625 L 2040.695312 169.003906 L 2040.296875 170.265625 L 2040 171.503906 L 2039.761719 172.820312 L 2039.582031 174.113281 L 2039.464844 175.402344 Z M 2039.421875 176.71875 "/>
<path style="fill-rule:evenodd;fill:rgb(85.098039%,81.568627%,78.823529%);fill-opacity:1;stroke-width:0.75;stroke-linecap:butt;stroke-linejoin:miter;stroke:rgb(72.54902%,66.27451%,61.176471%);stroke-opacity:1;stroke-miterlimit:4;" d="M 1937.015625 176.34375 L 1937.75 178.84375 L 1937.730469 180.136719 L 1937.730469 181.398438 L 1937.234375 182.3125 L 1937.988281 183.953125 L 1938.226562 185.191406 L 1938.503906 186.425781 L 1938.863281 187.664062 L 1939.28125 188.875 L 1939.757812 190.058594 L 1940.3125 191.214844 L 1940.910156 192.34375 L 1941.585938 193.417969 L 1942.28125 194.492188 L 1943.054688 195.515625 L 1943.871094 196.484375 L 1944.746094 197.425781 L 1945.660156 198.285156 L 1946.632812 199.144531 L 1947.628906 199.925781 L 1948.679688 200.652344 L 1949.753906 201.324219 L 1950.867188 201.914062 L 1952.019531 202.480469 L 1953.171875 202.992188 L 1954.382812 203.421875 L 1955.617188 203.796875 L 1956.828125 204.09375 L 1958.082031 204.335938 L 1959.332031 204.523438 L 1960.625 204.628906 L 1961.898438 204.65625 L 1963.148438 204.628906 L 1964.421875 204.550781 L 1965.691406 204.386719 L 1966.945312 204.148438 L 1968.175781 203.851562 L 1969.410156 203.5 L 1970.621094 203.070312 L 1971.773438 202.585938 L 1972.925781 202.050781 L 1974.039062 201.457031 L 1975.132812 200.8125 L 1976.207031 200.085938 L 1977.21875 199.304688 L 1978.191406 198.472656 L 1979.105469 197.613281 L 1979.980469 196.699219 L 1980.816406 195.730469 L 1981.609375 194.707031 L 1982.308594 193.660156 L 1983.003906 192.558594 L 1983.597656 191.457031 L 1984.175781 190.300781 L 1984.652344 189.144531 L 1985.089844 187.933594 L 1985.464844 186.695312 L 1985.765625 185.460938 L 1986.003906 184.222656 L 1986.164062 182.957031 L 1986.28125 181.667969 L 1986.320312 180.402344 L 1986.300781 179.140625 L 1986.183594 177.847656 L 1986.042969 176.585938 L 1985.824219 175.320312 L 1985.527344 174.085938 L 1985.1875 172.847656 L 1984.75 171.664062 L 1984.273438 170.480469 L 1983.71875 169.300781 L 1983.121094 168.195312 L 1982.464844 167.09375 L 1981.769531 166.019531 L 1980.976562 165.023438 L 1980.160156 164.054688 L 1979.304688 163.113281 L 1978.390625 162.226562 L 1977.417969 161.394531 L 1976.425781 160.613281 L 1975.371094 159.886719 L 1974.277344 159.214844 L 1973.164062 158.597656 L 1972.011719 158.03125 L 1970.859375 157.546875 L 1969.667969 157.089844 L 1968.433594 156.742188 L 1967.203125 156.445312 L 1965.949219 156.203125 L 1964.699219 156.042969 L 1963.425781 155.933594 L 1962.175781 155.882812 L 1960.882812 155.910156 L 1959.609375 156.015625 L 1958.359375 156.175781 L 1957.105469 156.367188 L 1955.875 156.660156 L 1954.644531 157.011719 L 1953.429688 157.441406 L 1952.257812 157.925781 L 1951.105469 158.464844 L 1949.992188 159.082031 L 1948.898438 159.753906 L 1947.847656 160.480469 L 1946.851562 161.234375 L 1945.859375 162.066406 L 1944.925781 162.925781 L 1944.050781 163.867188 L 1943.234375 164.835938 L 1942.441406 165.804688 L 1941.726562 166.878906 L 1941.050781 167.953125 L 1940.433594 169.058594 L 1939.875 170.214844 L 1939.378906 171.421875 L 1938.941406 172.605469 L 1938.585938 173.816406 L 1938.285156 175.054688 Z M 1937.015625 176.34375 "/>
<path style="fill-rule:evenodd;fill:rgb(85.098039%,81.568627%,78.823529%);fill-opacity:1;stroke-width:0.75;stroke-linecap:butt;stroke-linejoin:miter;stroke:rgb(72.54902%,66.27451%,61.176471%);stroke-opacity:1;stroke-miterlimit:4;" d="M 1848.5 255.019531 L 1848.996094 273.382812 L 1866.980469 272.875 L 1867.101562 277.148438 L 1893.292969 276.421875 L 1892.539062 250.019531 L 1866.34375 250.746094 L 1866.445312 254.507812 Z M 1848.5 255.019531 "/>
<path style="fill-rule:evenodd;fill:rgb(85.098039%,81.568627%,78.823529%);fill-opacity:1;stroke-width:0.75;stroke-linecap:butt;stroke-linejoin:miter;stroke:rgb(72.54902%,66.27451%,61.176471%);stroke-opacity:1;stroke-miterlimit:4;" d="M 1431.292969 40.449219 L 1431.671875 59.96875 L 1472.511719 59.164062 L 1472.113281 39.640625 Z M 1431.292969 40.449219 "/>
<path style="fill-rule:evenodd;fill:rgb(85.098039%,81.568627%,78.823529%);fill-opacity:1;stroke-width:0.75;stroke-linecap:butt;stroke-linejoin:miter;stroke:rgb(72.54902%,66.27451%,61.176471%);stroke-opacity:1;stroke-miterlimit:4;" d="M 1494.3125 20.820312 L 1494.730469 66.019531 L 1512.238281 65.832031 L 1511.820312 20.660156 Z M 1494.3125 20.820312 "/>
<path style="fill-rule:evenodd;fill:rgb(85.098039%,81.568627%,78.823529%);fill-opacity:1;stroke-width:0.75;stroke-linecap:butt;stroke-linejoin:miter;stroke:rgb(72.54902%,66.27451%,61.176471%);stroke-opacity:1;stroke-miterlimit:4;" d="M 1520.882812 20.175781 L 1522.117188 64.703125 L 1539.785156 64.191406 L 1538.550781 19.691406 Z M 1520.882812 20.175781 "/>
<path style="fill-rule:evenodd;fill:rgb(85.098039%,81.568627%,78.823529%);fill-opacity:1;stroke-width:0.75;stroke-linecap:butt;stroke-linejoin:miter;stroke:rgb(72.54902%,66.27451%,61.176471%);stroke-opacity:1;stroke-miterlimit:4;" d="M 2560.925781 967.867188 L 2561.203125 984.164062 L 2566.765625 984.054688 L 2566.945312 995.347656 L 2585.328125 995.023438 L 2584.8125 965.582031 L 2566.46875 965.90625 L 2566.507812 967.789062 Z M 2560.925781 967.867188 "/>
<path style="fill-rule:evenodd;fill:rgb(85.098039%,81.568627%,78.823529%);fill-opacity:1;stroke-width:0.75;stroke-linecap:butt;stroke-linejoin:miter;stroke:rgb(72.54902%,66.27451%,61.176471%);stroke-opacity:1;stroke-miterlimit:4;" d="M 1241.285156 60.398438 L 1253.722656 60.425781 L 1253.84375 17.164062 L 1241.402344 17.136719 Z M 1241.285156 60.398438 "/>
<path style="fill-rule:evenodd;fill:rgb(85.098039%,81.568627%,78.823529%);fill-opacity:1;stroke-width:0.75;stroke-linecap:butt;stroke-linejoin:miter;stroke:rgb(72.54902%,66.27451%,61.176471%);stroke-opacity:1;stroke-miterlimit:4;" d="M 1725.878906 33.96875 L 1726.335938 56.609375 L 1746.785156 56.207031 L 1746.347656 33.566406 Z M 1725.878906 33.96875 "/>
<path style="fill-rule:evenodd;fill:rgb(85.098039%,81.568627%,78.823529%);fill-opacity:1;stroke-width:0.75;stroke-linecap:butt;stroke-linejoin:miter;stroke:rgb(72.54902%,66.27451%,61.176471%);stroke-opacity:1;stroke-miterlimit:4;" d="M 1448.902344 65.671875 L 1449.257812 82.503906 L 1472.433594 82.046875 L 1472.113281 65.238281 Z M 1448.902344 65.671875 "/>
<path style="fill-rule:evenodd;fill:rgb(85.098039%,81.568627%,78.823529%);fill-opacity:1;stroke-width:0.75;stroke-linecap:butt;stroke-linejoin:miter;stroke:rgb(72.54902%,66.27451%,61.176471%);stroke-opacity:1;stroke-miterlimit:4;" d="M 1406.074219 29.691406 L 1406.472656 67.605469 L 1416.667969 67.5 L 1416.25 29.558594 Z M 1406.074219 29.691406 "/>
<path style="fill-rule:evenodd;fill:rgb(85.098039%,81.568627%,78.823529%);fill-opacity:1;stroke-width:0.75;stroke-linecap:butt;stroke-linejoin:miter;stroke:rgb(72.54902%,66.27451%,61.176471%);stroke-opacity:1;stroke-miterlimit:4;" d="M 2515.472656 968.378906 L 2515.792969 988.195312 L 2533.996094 987.898438 L 2533.65625 968.058594 Z M 2515.472656 968.378906 "/>
<path style="fill-rule:evenodd;fill:rgb(85.098039%,81.568627%,78.823529%);fill-opacity:1;stroke-width:0.75;stroke-linecap:butt;stroke-linejoin:miter;stroke:rgb(72.54902%,66.27451%,61.176471%);stroke-opacity:1;stroke-miterlimit:4;" d="M 1230.351562 68.089844 L 1238.757812 68.117188 L 1238.917969 26.25 L 1230.492188 26.226562 Z M 1230.351562 68.089844 "/>
<path style="fill-rule:evenodd;fill:rgb(85.098039%,81.568627%,78.823529%);fill-opacity:1;stroke-width:0.75;stroke-linecap:butt;stroke-linejoin:miter;stroke:rgb(72.54902%,66.27451%,61.176471%);stroke-opacity:1;stroke-miterlimit:4;" d="M 1763.378906 50.019531 L 1763.539062 58.597656 L 1804.101562 57.792969 L 1803.941406 49.214844 Z M 1763.378906 50.019531 "/>
<path style="fill-rule:evenodd;fill:rgb(85.098039%,81.568627%,78.823529%);fill-opacity:1;stroke-width:0.75;stroke-linecap:butt;stroke-linejoin:miter;stroke:rgb(72.54902%,66.27451%,61.176471%);stroke-opacity:1;stroke-miterlimit:4;" d="M 1479.507812 67.6875 L 1489.007812 67.742188 L 1489.164062 33.214844 L 1479.667969 33.160156 Z M 1479.507812 67.6875 "/>
<path style="fill-rule:evenodd;fill:rgb(85.098039%,81.568627%,78.823529%);fill-opacity:1;stroke-width:0.75;stroke-linecap:butt;stroke-linejoin:miter;stroke:rgb(72.54902%,66.27451%,61.176471%);stroke-opacity:1;stroke-miterlimit:4;" d="M 1578.695312 57.820312 L 1578.875 65.964844 L 1613.671875 65.480469 L 1613.472656 56.984375 Z M 1578.695312 57.820312 "/>
<path style="fill-rule:evenodd;fill:rgb(85.098039%,81.568627%,78.823529%);fill-opacity:1;stroke-width:0.75;stroke-linecap:butt;stroke-linejoin:miter;stroke:rgb(72.54902%,66.27451%,61.176471%);stroke-opacity:1;stroke-miterlimit:4;" d="M 2543.136719 963.003906 L 2543.457031 982.496094 L 2558.242188 982.253906 L 2557.921875 962.761719 Z M 2543.136719 963.003906 "/>
<path style="fill-rule:evenodd;fill:rgb(85.098039%,81.568627%,78.823529%);fill-opacity:1;stroke-width:0.75;stroke-linecap:butt;stroke-linejoin:miter;stroke:rgb(72.54902%,66.27451%,61.176471%);stroke-opacity:1;stroke-miterlimit:4;" d="M 1035.195312 946.65625 L 1035.375 958.136719 L 1060.195312 957.734375 L 1060.015625 946.25 Z M 1035.195312 946.65625 "/>
<path style="fill-rule:evenodd;fill:rgb(85.098039%,81.568627%,78.823529%);fill-opacity:1;stroke-width:0.75;stroke-linecap:butt;stroke-linejoin:miter;stroke:rgb(72.54902%,66.27451%,61.176471%);stroke-opacity:1;stroke-miterlimit:4;" d="M 2501.324219 966.578125 L 2501.660156 988.570312 L 2511.398438 988.410156 L 2511.0625 966.445312 Z M 2501.324219 966.578125 "/>
<path style="fill-rule:evenodd;fill:rgb(85.098039%,81.568627%,78.823529%);fill-opacity:1;stroke-width:0.75;stroke-linecap:butt;stroke-linejoin:miter;stroke:rgb(72.54902%,66.27451%,61.176471%);stroke-opacity:1;stroke-miterlimit:4;" d="M 1267.515625 69.488281 L 1273.636719 69.515625 L 1273.796875 35.527344 L 1267.65625 35.5 Z M 1267.515625 69.488281 "/>
<path style="fill-rule:evenodd;fill:rgb(85.098039%,81.568627%,78.823529%);fill-opacity:1;stroke-width:0.75;stroke-linecap:butt;stroke-linejoin:miter;stroke:rgb(72.54902%,66.27451%,61.176471%);stroke-opacity:1;stroke-miterlimit:4;" d="M 900.929688 70.699219 L 901.128906 84.007812 L 914.960938 83.792969 L 914.742188 70.484375 Z M 900.929688 70.699219 "/>
<path style="fill-rule:evenodd;fill:rgb(85.098039%,81.568627%,78.823529%);fill-opacity:1;stroke-width:0.75;stroke-linecap:butt;stroke-linejoin:miter;stroke:rgb(72.54902%,66.27451%,61.176471%);stroke-opacity:1;stroke-miterlimit:4;" d="M 1398.503906 38.917969 L 1399.378906 68.25 L 1404.941406 68.089844 L 1404.085938 38.753906 Z M 1398.503906 38.917969 "/>
<path style="fill-rule:evenodd;fill:rgb(85.098039%,81.568627%,78.823529%);fill-opacity:1;stroke-width:0.75;stroke-linecap:butt;stroke-linejoin:miter;stroke:rgb(72.54902%,66.27451%,61.176471%);stroke-opacity:1;stroke-miterlimit:4;" d="M 1557.351562 59.027344 L 1557.449219 65.964844 L 1577.183594 65.671875 L 1577.085938 58.734375 Z M 1557.351562 59.027344 "/>
<path style="fill-rule:evenodd;fill:rgb(85.098039%,81.568627%,78.823529%);fill-opacity:1;stroke-width:0.75;stroke-linecap:butt;stroke-linejoin:miter;stroke:rgb(72.54902%,66.27451%,61.176471%);stroke-opacity:1;stroke-miterlimit:4;" d="M 1339.179688 178.925781 L 1349.8125 194.035156 L 1356.230469 182.125 Z M 1339.179688 178.925781 "/>
<path style="fill-rule:evenodd;fill:rgb(85.098039%,81.568627%,78.823529%);fill-opacity:1;stroke-width:0.75;stroke-linecap:butt;stroke-linejoin:miter;stroke:rgb(72.54902%,66.27451%,61.176471%);stroke-opacity:1;stroke-miterlimit:4;" d="M 1207.578125 34.398438 L 1207.875 46.984375 L 1214.59375 46.820312 L 1214.296875 34.238281 Z M 1207.578125 34.398438 "/>
<path style="fill-rule:evenodd;fill:rgb(85.098039%,81.568627%,78.823529%);fill-opacity:1;stroke-width:0.75;stroke-linecap:butt;stroke-linejoin:miter;stroke:rgb(72.54902%,66.27451%,61.176471%);stroke-opacity:1;stroke-miterlimit:4;" d="M 1886.398438 19.261719 L 1886.535156 32.140625 L 1892.957031 32.058594 L 1892.796875 19.179688 Z M 1886.398438 19.261719 "/>
<path style="fill:none;stroke-width:4.75;stroke-linecap:round;stroke-linejoin:round;stroke:rgb(73.333333%,73.333333%,73.333333%);stroke-opacity:1;stroke-miterlimit:4;" d="M 2701.789062 979.539062 L 2998.976562 973.21875 L 3325.515625 966.929688 L 3681.175781 957.113281 L 3683.636719 1031.644531 L 3686.28125 1112.089844 L 3688.925781 1192.320312 L 3691.628906 1274.085938 L 3696.058594 1408.328125 "/>
<path style="fill:none;stroke-width:4.75;stroke-linecap:round;stroke-linejoin:round;stroke:rgb(73.333333%,73.333333%,73.333333%);stroke-opacity:1;stroke-miterlimit:4;" d="M 230.773438 277.445312 L 355.082031 276.367188 "/>
<path style="fill:none;stroke-width:4.75;stroke-linecap:round;stroke-linejoin:round;stroke:rgb(73.333333%,73.333333%,73.333333%);stroke-opacity:1;stroke-miterlimit:4;" d="M 230.160156 234.503906 L 354.070312 232.890625 "/>
<path style="fill:none;stroke-width:8.5;stroke-linecap:round;stroke-linejoin:round;stroke:rgb(73.333333%,73.333333%,73.333333%);stroke-opacity:1;stroke-miterlimit:4;" d="M 226.285156 133.347656 L 226.480469 148.78125 L 226.960938 183.523438 L 227.277344 187.691406 L 229.125 195.40625 "/>
<path style="fill:none;stroke-width:8.5;stroke-linecap:round;stroke-linejoin:round;stroke:rgb(73.333333%,73.333333%,73.333333%);stroke-opacity:1;stroke-miterlimit:4;" d="M 355.125 279.59375 L 377.996094 279.570312 L 395.488281 279.570312 "/>
<path style="fill:none;stroke-width:4.75;stroke-linecap:round;stroke-linejoin:round;stroke:rgb(73.333333%,73.333333%,73.333333%);stroke-opacity:1;stroke-miterlimit:4;" d="M 1092.230469 7.1875 L 1937.589844 -12.199219 "/>
<path style="fill:none;stroke-width:4.75;stroke-linecap:round;stroke-linejoin:round;stroke:rgb(73.333333%,73.333333%,73.333333%);stroke-opacity:1;stroke-miterlimit:4;" d="M 1092.230469 7.1875 L 1059.101562 -9.832031 L 1038.613281 -41.105469 L 1038.078125 -79.960938 L 1044.753906 -107.949219 L 1047 -117.335938 L 1055.664062 -129.460938 L 1074.207031 -141.320312 L 1787.746094 -157.105469 L 1788.300781 -196.765625 "/>
<path style="fill:none;stroke-width:8.5;stroke-linecap:round;stroke-linejoin:round;stroke:rgb(73.333333%,73.333333%,73.333333%);stroke-opacity:1;stroke-miterlimit:4;" d="M 355.125 279.59375 L 355.363281 308.742188 L 231.035156 309.738281 L 230.773438 277.445312 L 230.160156 234.503906 L 229.125 195.40625 L 352.421875 192.53125 L 354.070312 232.890625 L 355.082031 276.367188 L 355.125 279.59375 "/>
<path style="fill:none;stroke-width:4.75;stroke-linecap:round;stroke-linejoin:round;stroke:rgb(73.333333%,73.333333%,73.333333%);stroke-opacity:1;stroke-miterlimit:4;" d="M 2313.699219 1582.769531 L 2313.378906 1394.753906 L 2216.316406 1391.792969 L 2214.507812 1307.234375 L 2210.433594 1228.054688 L 2209.519531 1148.980469 L 2210.554688 1071.4375 L 2213.277344 988.707031 "/>
<path style="fill:none;stroke-width:8.5;stroke-linecap:round;stroke-linejoin:round;stroke:rgb(73.333333%,73.333333%,73.333333%);stroke-opacity:1;stroke-miterlimit:4;" d="M 1092.230469 7.1875 L 1092.292969 12.835938 L 1092.511719 38.433594 L 1093.582031 65.402344 L 1188.441406 63.816406 "/>
<path style="fill:none;stroke-width:8.5;stroke-linecap:round;stroke-linejoin:round;stroke:rgb(73.333333%,73.333333%,73.333333%);stroke-opacity:1;stroke-miterlimit:4;" d="M 229.601562 470.851562 L 1760.578125 445.335938 "/>
<path style="fill:none;stroke-width:4.75;stroke-linecap:round;stroke-linejoin:round;stroke:rgb(73.333333%,73.333333%,73.333333%);stroke-opacity:1;stroke-miterlimit:4;" d="M 1822.484375 294.921875 L 1841.761719 295.269531 L 1896.96875 296.238281 L 1921.890625 284.300781 L 1927.476562 264.402344 L 1924.914062 251.121094 L 1923.320312 242.839844 L 1922.167969 236.816406 L 1913.148438 229.125 L 1895.957031 227.59375 L 1892.71875 227.296875 L 1880.515625 226.222656 L 1840.550781 227.835938 L 1821.867188 228.589844 "/>
<path style="fill:none;stroke-width:8.5;stroke-linecap:round;stroke-linejoin:round;stroke:rgb(73.333333%,73.333333%,73.333333%);stroke-opacity:1;stroke-miterlimit:4;" d="M 892.066406 17.296875 L 914.703125 21.894531 L 987.71875 24.636719 L 1050.160156 12.671875 "/>
<path style="fill:none;stroke-width:8.5;stroke-linecap:round;stroke-linejoin:round;stroke:rgb(73.333333%,73.333333%,73.333333%);stroke-opacity:1;stroke-miterlimit:4;" d="M 1804.339844 118.507812 L 1810.121094 113.316406 L 1816.640625 108.289062 L 1822.523438 104.335938 L 1830.175781 101.539062 L 1838.203125 99.683594 L 1846.351562 98.796875 L 1889.476562 98.125 "/>
<path style="fill:none;stroke-width:8.5;stroke-linecap:round;stroke-linejoin:round;stroke:rgb(73.333333%,73.333333%,73.333333%);stroke-opacity:1;stroke-miterlimit:4;" d="M 1980.539062 441.785156 L 2128.894531 439.5 L 2524.257812 432.671875 L 2819.914062 424.871094 L 2825.460938 424.738281 L 2830.648438 424.765625 L 2835.160156 424.308594 L 2839.769531 423.367188 L 2844.679688 420.410156 L 2848.414062 417.558594 L 2853.066406 413.445312 L 2856.085938 406.425781 L 2857.636719 399.058594 L 2858.808594 390 L 2854.675781 232.488281 L 2851.910156 224.042969 L 2849.726562 218.128906 L 2842.234375 210.839844 L 2826.472656 210.894531 L 2280.328125 223.988281 L 2177.1875 229.097656 L 2078.257812 231.597656 L 2062.992188 234.851562 L 2044.910156 242.460938 L 2030.261719 251.175781 L 2017.582031 261.015625 L 1997.925781 279.328125 L 1987.574219 289.03125 L 1980.636719 295.511719 "/>
<path style="fill:none;stroke-width:8.5;stroke-linecap:round;stroke-linejoin:round;stroke:rgb(73.333333%,73.333333%,73.333333%);stroke-opacity:1;stroke-miterlimit:4;" d="M 1823.082031 339.339844 L 1823.179688 359.855469 L 1825.722656 444.609375 "/>
<path style="fill:none;stroke-width:8.5;stroke-linecap:round;stroke-linejoin:round;stroke:rgb(73.333333%,73.333333%,73.333333%);stroke-opacity:1;stroke-miterlimit:4;" d="M 393.203125 340.550781 L 393.996094 394.675781 L 394.492188 427.832031 L 544.101562 424.199219 "/>
<path style="fill:none;stroke-width:8.5;stroke-linecap:round;stroke-linejoin:round;stroke:rgb(73.333333%,73.333333%,73.333333%);stroke-opacity:1;stroke-miterlimit:4;" d="M 1775.484375 359.453125 L 1823.179688 359.855469 "/>
<path style="fill:none;stroke-width:8.5;stroke-linecap:round;stroke-linejoin:round;stroke:rgb(73.333333%,73.333333%,73.333333%);stroke-opacity:1;stroke-miterlimit:4;" d="M 198.242188 471.414062 L 229.601562 470.851562 "/>
<path style="fill:none;stroke-width:8.5;stroke-linecap:round;stroke-linejoin:round;stroke:rgb(73.333333%,73.333333%,73.333333%);stroke-opacity:1;stroke-miterlimit:4;" d="M 393.855469 129.585938 L 393.140625 104.363281 L 392.605469 85.433594 L 399.183594 74.195312 "/>
<path style="fill:none;stroke-width:8.5;stroke-linecap:round;stroke-linejoin:round;stroke:rgb(73.333333%,73.333333%,73.333333%);stroke-opacity:1;stroke-miterlimit:4;" d="M 281.253906 15.550781 L 288.585938 4.472656 "/>
<path style="fill:none;stroke-width:8.5;stroke-linecap:round;stroke-linejoin:round;stroke:rgb(73.333333%,73.333333%,73.333333%);stroke-opacity:1;stroke-miterlimit:4;" d="M 392.605469 85.433594 L 315.417969 37.007812 L 281.253906 15.550781 L 258.457031 1.246094 "/>
<path style="fill:none;stroke-width:8.5;stroke-linecap:round;stroke-linejoin:round;stroke:rgb(73.333333%,73.333333%,73.333333%);stroke-opacity:1;stroke-miterlimit:4;" d="M 311.222656 131.304688 L 310.546875 117.296875 L 310.429688 114.6875 L 307.824219 60.265625 L 308.339844 52.789062 L 311.023438 45.34375 L 315.417969 37.007812 "/>
<path style="fill:none;stroke-width:8.5;stroke-linecap:round;stroke-linejoin:round;stroke:rgb(73.333333%,73.333333%,73.333333%);stroke-opacity:1;stroke-miterlimit:4;" d="M 196.730469 344.449219 L 197.011719 359.75 L 197.964844 448.425781 L 198.242188 471.414062 L 197.269531 476.09375 L 193.332031 479.132812 L 188.921875 480.613281 L 91.800781 482.089844 L -163.753906 487.386719 L -169.140625 487.496094 L -178.261719 486.097656 L -186.46875 481.957031 L -192.511719 474.855469 L -196.765625 466.738281 L -198.195312 457.488281 L -198.59375 398.253906 L -198.234375 386.824219 L -197.300781 380.105469 L -196.664062 375.53125 L -194.457031 365.53125 L -190.664062 354.316406 L -186.25 345.550781 L -179.929688 336.894531 L -164.867188 318.851562 "/>
<path style="fill:none;stroke-width:8.5;stroke-linecap:round;stroke-linejoin:round;stroke:rgb(73.333333%,73.333333%,73.333333%);stroke-opacity:1;stroke-miterlimit:4;" d="M 115.667969 398.441406 L -144.992188 407.773438 L -144.457031 449.097656 L 161.238281 441.355469 L 162.3125 397.929688 L 115.667969 398.441406 "/>
<path style="fill:none;stroke-width:4.75;stroke-linecap:round;stroke-linejoin:round;stroke:rgb(73.333333%,73.333333%,73.333333%);stroke-opacity:1;stroke-miterlimit:4;" d="M 104.519531 346.277344 L 104.9375 356.871094 L 105.054688 360.207031 L 105.195312 363.753906 L 106.070312 386.71875 L 115.667969 398.441406 L 122.066406 386.449219 L 122.246094 363.273438 L 122.265625 359.964844 L 122.285156 356.683594 L 122.386719 345.929688 "/>
<path style="fill:none;stroke-width:4.75;stroke-linecap:round;stroke-linejoin:round;stroke:rgb(73.333333%,73.333333%,73.333333%);stroke-opacity:1;stroke-miterlimit:4;" d="M 286.023438 342.675781 L 286.460938 353.1875 L 286.601562 356.683594 L 287.273438 372.925781 L 287.453125 377.523438 L 296.359375 386.261719 L 305.578125 378.195312 L 305.203125 361.011719 L 305.101562 356.199219 L 305.042969 353.054688 L 304.804688 342.300781 "/>
<path style="fill:none;stroke-width:8.5;stroke-linecap:round;stroke-linejoin:round;stroke:rgb(73.333333%,73.333333%,73.333333%);stroke-opacity:1;stroke-miterlimit:4;" d="M 245.0625 430.839844 L 362.199219 428.582031 L 361.800781 384.59375 L 296.359375 386.261719 L 246.136719 387.523438 L 245.0625 430.839844 "/>
<path style="fill:none;stroke-width:8.5;stroke-linecap:round;stroke-linejoin:round;stroke:rgb(73.333333%,73.333333%,73.333333%);stroke-opacity:1;stroke-miterlimit:4;" d="M 197.964844 448.425781 L 230.140625 448.023438 L 245.0625 430.839844 "/>
<path style="fill:none;stroke-width:8.5;stroke-linecap:round;stroke-linejoin:round;stroke:rgb(73.333333%,73.333333%,73.333333%);stroke-opacity:1;stroke-miterlimit:4;" d="M 1980.636719 295.511719 L 1933.339844 322.671875 L 1891.605469 336.652344 L 1842.792969 338.5625 L 1823.082031 339.339844 "/>
<path style="fill:none;stroke-width:8.5;stroke-linecap:round;stroke-linejoin:round;stroke:rgb(73.333333%,73.333333%,73.333333%);stroke-opacity:1;stroke-miterlimit:4;" d="M 1825.722656 444.609375 L 1846.589844 444.230469 L 1980.539062 441.785156 "/>
<path style="fill:none;stroke-width:8.5;stroke-linecap:round;stroke-linejoin:round;stroke:rgb(73.333333%,73.333333%,73.333333%);stroke-opacity:1;stroke-miterlimit:4;" d="M 1980.539062 441.785156 L 1980.636719 295.511719 "/>
<path style="fill:none;stroke-width:8.5;stroke-linecap:round;stroke-linejoin:round;stroke:rgb(73.333333%,73.333333%,73.333333%);stroke-opacity:1;stroke-miterlimit:4;" d="M 1822.644531 310.839844 L 1823.082031 339.339844 "/>
<path style="fill:none;stroke-width:4.75;stroke-linecap:round;stroke-linejoin:round;stroke:rgb(73.333333%,73.333333%,73.333333%);stroke-opacity:1;stroke-miterlimit:4;" d="M 1666.257812 102.078125 L 1666.398438 114.824219 L 1666.714844 144.722656 L 1753.960938 149.132812 L 1772.285156 169.542969 L 1780.628906 178.84375 L 1798.398438 177.824219 L 1806.503906 177.367188 L 1821.648438 176.503906 "/>
<path style="fill:none;stroke-width:8.5;stroke-linecap:round;stroke-linejoin:round;stroke:rgb(73.333333%,73.333333%,73.333333%);stroke-opacity:1;stroke-miterlimit:4;" d="M 1780.628906 178.84375 L 1782.023438 272.65625 "/>
<path style="fill:none;stroke-width:8.5;stroke-linecap:round;stroke-linejoin:round;stroke:rgb(73.333333%,73.333333%,73.333333%);stroke-opacity:1;stroke-miterlimit:4;" d="M 1261.394531 111.058594 L 1261.695312 128.050781 L 1262.347656 156.203125 L 1403.472656 152.898438 L 1401.582031 125.011719 L 1400.429688 107.992188 "/>
<path style="fill:none;stroke-width:8.5;stroke-linecap:round;stroke-linejoin:round;stroke:rgb(73.333333%,73.333333%,73.333333%);stroke-opacity:1;stroke-miterlimit:4;" d="M 1060.929688 115.523438 L 1062.082031 132.648438 L 1063.8125 158.570312 L 1203.304688 154.96875 L 1201.574219 129.800781 L 1200.382812 112.429688 "/>
<path style="fill:none;stroke-width:8.5;stroke-linecap:round;stroke-linejoin:round;stroke:rgb(73.333333%,73.333333%,73.333333%);stroke-opacity:1;stroke-miterlimit:4;" d="M 859.074219 120.011719 L 860.070312 136.980469 L 861.558594 165.589844 L 1000.078125 162.847656 L 998.6875 134.828125 L 997.871094 116.921875 "/>
<path style="fill:none;stroke-width:8.5;stroke-linecap:round;stroke-linejoin:round;stroke:rgb(73.333333%,73.333333%,73.333333%);stroke-opacity:1;stroke-miterlimit:4;" d="M 561.03125 126.0625 L 561.390625 143.59375 L 561.90625 170 L 801.003906 165.183594 L 799.652344 138.539062 L 798.78125 121.277344 "/>
<path style="fill:none;stroke-width:8.5;stroke-linecap:round;stroke-linejoin:round;stroke:rgb(73.333333%,73.333333%,73.333333%);stroke-opacity:1;stroke-miterlimit:4;" d="M 84.089844 136.46875 L 84.804688 150.34375 L 86.175781 176.667969 L 176.441406 175.054688 "/>
<path style="fill:none;stroke-width:8.5;stroke-linecap:round;stroke-linejoin:round;stroke:rgb(73.333333%,73.333333%,73.333333%);stroke-opacity:1;stroke-miterlimit:4;" d="M 86.175781 176.667969 L -57.648438 180.726562 "/>
<path style="fill:none;stroke-width:8.5;stroke-linecap:round;stroke-linejoin:round;stroke:rgb(73.333333%,73.333333%,73.333333%);stroke-opacity:1;stroke-miterlimit:4;" d="M 1760.578125 445.335938 L 1825.722656 444.609375 "/>
<path style="fill:none;stroke-width:8.5;stroke-linecap:round;stroke-linejoin:round;stroke:rgb(73.333333%,73.333333%,73.333333%);stroke-opacity:1;stroke-miterlimit:4;" d="M 1613.414062 103.261719 L 1613.773438 116.464844 L 1615.28125 155.128906 "/>
<path style="fill:none;stroke-width:8.5;stroke-linecap:round;stroke-linejoin:round;stroke:rgb(73.333333%,73.333333%,73.333333%);stroke-opacity:1;stroke-miterlimit:4;" d="M 1458.898438 106.730469 L 1459.632812 124.074219 L 1460.925781 156.714844 "/>
<path style="fill:none;stroke-width:13;stroke-linecap:round;stroke-linejoin:round;stroke:rgb(73.333333%,73.333333%,73.333333%);stroke-opacity:1;stroke-miterlimit:4;" d="M 397.058594 340.46875 L 396.679688 326.085938 L 395.488281 279.570312 L 395.03125 260.855469 L 393.140625 184.355469 L 392.207031 146.710938 L 391.652344 129.613281 "/>
<path style="fill:none;stroke-width:13;stroke-linecap:round;stroke-linejoin:round;stroke:rgb(73.333333%,73.333333%,73.333333%);stroke-opacity:1;stroke-miterlimit:4;" d="M 1822.644531 310.839844 L 548.59375 337.324219 L 545.390625 337.378906 L 418.023438 340.039062 L 397.058594 340.46875 "/>
<path style="fill:none;stroke-width:13;stroke-linecap:round;stroke-linejoin:round;stroke:rgb(73.333333%,73.333333%,73.333333%);stroke-opacity:1;stroke-miterlimit:4;" d="M -133.328125 142.277344 L -116.316406 117.082031 L -112.71875 111.757812 L -98.925781 91.320312 L -57.75 32.460938 L 23.214844 -83.292969 L 30.488281 -91.304688 L 38.042969 -97.652344 L 46.84375 -103.03125 L 59.785156 -110.453125 L 68.308594 -116.769531 L 75.207031 -124.300781 L 166.484375 -252.480469 L 239.140625 -354.550781 L 242.996094 -359.957031 L 255.675781 -377.785156 "/>
<path style="fill:none;stroke-width:13;stroke-linecap:round;stroke-linejoin:round;stroke:rgb(73.333333%,73.333333%,73.333333%);stroke-opacity:1;stroke-miterlimit:4;" d="M 397.058594 340.46875 L 393.203125 340.550781 L 381.773438 340.765625 L 304.804688 342.300781 L 286.023438 342.675781 L 196.730469 344.449219 L 175.804688 344.851562 L 122.386719 345.929688 L 104.519531 346.277344 L -48.984375 349.34375 L -67.746094 349.128906 L -83.503906 348.484375 L -96.980469 347.863281 L -106.855469 346.761719 L -117.6875 344.476562 L -127.625 341.035156 L -138.972656 335.871094 L -148.492188 330.738281 L -157.078125 325.546875 L -164.867188 318.851562 "/>

<path style="fill:none;stroke-width:21;stroke-linecap:round;stroke-linejoin:round;stroke:rgb(56.078431%,56.078431%,56.078431%);stroke-opacity:1;stroke-miterlimit:4;" d="M 1172.320312 113.046875 L 1200.382812 112.429688 L 1221.25 111.972656 L 1261.394531 111.058594 L 1400.429688 107.992188 L 1443.179688 107.050781 L 1458.898438 106.730469 L 1613.414062 103.261719 L 1666.257812 102.078125 L 1683.546875 101.703125 L 1751.992188 100.167969 L 1762.921875 100.304688 L 1772.898438 101.59375 L 1782.28125 104.175781 L 1789.691406 107.671875 L 1796.925781 112.242188 L 1804.339844 118.507812 L 1809.585938 124.773438 L 1814.773438 132.003906 L 1819.066406 141.710938 L 1821.035156 148.59375 L 1821.925781 157.496094 L 1821.648438 176.503906 L 1822.007812 185.996094 L 1821.867188 228.589844 L 1822.484375 294.921875 L 1822.644531 310.839844 "/>
<path style="fill:none;stroke-width:21;stroke-linecap:round;stroke-linejoin:round;stroke:rgb(56.078431%,56.078431%,56.078431%);stroke-opacity:1;stroke-miterlimit:4;" d="M 21.945312 137.8125 L 84.089844 136.46875 L 226.285156 133.347656 "/>
<path style="fill:none;stroke-width:21;stroke-linecap:round;stroke-linejoin:round;stroke:rgb(56.078431%,56.078431%,56.078431%);stroke-opacity:1;stroke-miterlimit:4;" d="M 391.652344 129.613281 L 393.855469 129.585938 L 473.273438 127.835938 L 561.03125 126.0625 L 798.78125 121.277344 L 816.984375 120.925781 L 828.472656 120.683594 "/>
<path style="fill:none;stroke-width:21;stroke-linecap:round;stroke-linejoin:round;stroke:rgb(56.078431%,56.078431%,56.078431%);stroke-opacity:1;stroke-miterlimit:4;" d="M 892.066406 17.296875 L 878.074219 39.992188 L 841.886719 98.878906 L 828.472656 120.683594 "/>
<path style="fill:none;stroke-width:21;stroke-linecap:round;stroke-linejoin:round;stroke:rgb(56.078431%,56.078431%,56.078431%);stroke-opacity:1;stroke-miterlimit:4;" d="M 226.285156 133.347656 L 235.761719 133.132812 L 311.222656 131.304688 "/>
<path style="fill:none;stroke-width:21;stroke-linecap:round;stroke-linejoin:round;stroke:rgb(56.078431%,56.078431%,56.078431%);stroke-opacity:1;stroke-miterlimit:4;" d="M -133.328125 142.277344 L -80.484375 140.070312 L 21.945312 137.8125 "/>
<path style="fill:none;stroke-width:21;stroke-linecap:round;stroke-linejoin:round;stroke:rgb(56.078431%,56.078431%,56.078431%);stroke-opacity:1;stroke-miterlimit:4;" d="M 311.222656 131.304688 L 391.652344 129.613281 "/>
<path style="fill:none;stroke-width:21;stroke-linecap:round;stroke-linejoin:round;stroke:rgb(56.078431%,56.078431%,56.078431%);stroke-opacity:1;stroke-miterlimit:4;" d="M 828.472656 120.683594 L 859.074219 120.011719 L 881.195312 119.5 L 997.871094 116.921875 L 1060.929688 115.523438 L 1172.320312 113.046875 "/>

<path style="fill:none;stroke-width:8.5;stroke-linecap:round;stroke-linejoin:round;stroke:rgb(73.333333%,73.333333%,73.333333%);stroke-opacity:1;stroke-miterlimit:4;" d="M 1823.179688 359.855469 L 1843.511719 360.019531 L 1855.058594 360.125 "/>
<path style="fill:none;stroke-width:8.5;stroke-linecap:round;stroke-linejoin:round;stroke:rgb(73.333333%,73.333333%,73.333333%);stroke-opacity:1;stroke-miterlimit:4;" d="M 1990.871094 319.066406 L 2003.492188 312.183594 L 2807.972656 293.363281 "/>
<path style="fill:none;stroke-width:3.15;stroke-linecap:round;stroke-linejoin:round;stroke:rgb(100%,100%,100%);stroke-opacity:1;stroke-miterlimit:4;" d="M 2998.976562 973.21875 L 3000.328125 1059.042969 L 3001.460938 1131.449219 L 3002.691406 1210.28125 L 3003.945312 1289.25 L 3006.667969 1462.722656 "/><path style="fill:none;stroke-width:3.15;stroke-linecap:round;stroke-linejoin:round;stroke:rgb(100%,100%,100%);stroke-opacity:1;stroke-miterlimit:4;" d="M 2701.789062 979.539062 L 2998.976562 973.21875 L 3325.515625 966.929688 L 3681.175781 957.113281 L 3683.636719 1031.644531 L 3686.28125 1112.089844 L 3688.925781 1192.320312 L 3691.628906 1274.085938 L 3696.058594 1408.328125 "/><path style="fill:none;stroke-width:3.15;stroke-linecap:round;stroke-linejoin:round;stroke:rgb(100%,100%,100%);stroke-opacity:1;stroke-miterlimit:4;" d="M 230.773438 277.445312 L 355.082031 276.367188 "/><path style="fill:none;stroke-width:3.15;stroke-linecap:round;stroke-linejoin:round;stroke:rgb(100%,100%,100%);stroke-opacity:1;stroke-miterlimit:4;" d="M 230.160156 234.503906 L 354.070312 232.890625 "/><path style="fill:none;stroke-width:6.9;stroke-linecap:round;stroke-linejoin:round;stroke:rgb(100%,100%,100%);stroke-opacity:1;stroke-miterlimit:4;" d="M 226.285156 133.347656 L 226.480469 148.78125 L 226.960938 183.523438 L 227.277344 187.691406 L 229.125 195.40625 "/><path style="fill:none;stroke-width:6.9;stroke-linecap:round;stroke-linejoin:round;stroke:rgb(100%,100%,100%);stroke-opacity:1;stroke-miterlimit:4;" d="M 355.125 279.59375 L 377.996094 279.570312 L 395.488281 279.570312 "/><path style="fill:none;stroke-width:3.15;stroke-linecap:round;stroke-linejoin:round;stroke:rgb(100%,100%,100%);stroke-opacity:1;stroke-miterlimit:4;" d="M 1092.230469 7.1875 L 1937.589844 -12.199219 "/><path style="fill:none;stroke-width:3.15;stroke-linecap:round;stroke-linejoin:round;stroke:rgb(100%,100%,100%);stroke-opacity:1;stroke-miterlimit:4;" d="M 1092.230469 7.1875 L 1059.101562 -9.832031 L 1038.613281 -41.105469 L 1038.078125 -79.960938 L 1044.753906 -107.949219 L 1047 -117.335938 L 1055.664062 -129.460938 L 1074.207031 -141.320312 L 1787.746094 -157.105469 L 1788.300781 -196.765625 "/><path style="fill:none;stroke-width:6.9;stroke-linecap:round;stroke-linejoin:round;stroke:rgb(100%,100%,100%);stroke-opacity:1;stroke-miterlimit:4;" d="M 355.125 279.59375 L 355.363281 308.742188 L 231.035156 309.738281 L 230.773438 277.445312 L 230.160156 234.503906 L 229.125 195.40625 L 352.421875 192.53125 L 354.070312 232.890625 L 355.082031 276.367188 L 355.125 279.59375 "/><path style="fill:none;stroke-width:3.15;stroke-linecap:round;stroke-linejoin:round;stroke:rgb(100%,100%,100%);stroke-opacity:1;stroke-miterlimit:4;" d="M 2313.699219 1582.769531 L 2313.378906 1394.753906 L 2216.316406 1391.792969 L 2214.507812 1307.234375 L 2210.433594 1228.054688 L 2209.519531 1148.980469 L 2210.554688 1071.4375 L 2213.277344 988.707031 "/><path style="fill:none;stroke-width:6.9;stroke-linecap:round;stroke-linejoin:round;stroke:rgb(100%,100%,100%);stroke-opacity:1;stroke-miterlimit:4;" d="M 1092.230469 7.1875 L 1092.292969 12.835938 L 1092.511719 38.433594 L 1093.582031 65.402344 L 1188.441406 63.816406 "/><path style="fill:none;stroke-width:6.9;stroke-linecap:round;stroke-linejoin:round;stroke:rgb(100%,100%,100%);stroke-opacity:1;stroke-miterlimit:4;" d="M 229.601562 470.851562 L 1760.578125 445.335938 "/><path style="fill:none;stroke-width:3.15;stroke-linecap:round;stroke-linejoin:round;stroke:rgb(100%,100%,100%);stroke-opacity:1;stroke-miterlimit:4;" d="M 1822.484375 294.921875 L 1841.761719 295.269531 L 1896.96875 296.238281 L 1921.890625 284.300781 L 1927.476562 264.402344 L 1924.914062 251.121094 L 1923.320312 242.839844 L 1922.167969 236.816406 L 1913.148438 229.125 L 1895.957031 227.59375 L 1892.71875 227.296875 L 1880.515625 226.222656 L 1840.550781 227.835938 L 1821.867188 228.589844 "/><path style="fill:none;stroke-width:6.9;stroke-linecap:round;stroke-linejoin:round;stroke:rgb(100%,100%,100%);stroke-opacity:1;stroke-miterlimit:4;" d="M 892.066406 17.296875 L 914.703125 21.894531 L 987.71875 24.636719 L 1050.160156 12.671875 "/><path style="fill:none;stroke-width:6.9;stroke-linecap:round;stroke-linejoin:round;stroke:rgb(100%,100%,100%);stroke-opacity:1;stroke-miterlimit:4;" d="M 1804.339844 118.507812 L 1810.121094 113.316406 L 1816.640625 108.289062 L 1822.523438 104.335938 L 1830.175781 101.539062 L 1838.203125 99.683594 L 1846.351562 98.796875 L 1889.476562 98.125 "/>
<path style="fill:none;stroke-width:6.9;stroke-linecap:round;stroke-linejoin:round;stroke:rgb(100%,100%,100%);stroke-opacity:1;stroke-miterlimit:4;" d="M 1980.539062 441.785156 L 2128.894531 439.5 L 2524.257812 432.671875 L 2819.914062 424.871094 L 2825.460938 424.738281 L 2830.648438 424.765625 L 2835.160156 424.308594 L 2839.769531 423.367188 L 2844.679688 420.410156 L 2848.414062 417.558594 L 2853.066406 413.445312 L 2856.085938 406.425781 L 2857.636719 399.058594 L 2858.808594 390 L 2854.675781 232.488281 L 2851.910156 224.042969 L 2849.726562 218.128906 L 2842.234375 210.839844 L 2826.472656 210.894531 L 2280.328125 223.988281 L 2177.1875 229.097656 L 2078.257812 231.597656 L 2062.992188 234.851562 L 2044.910156 242.460938 L 2030.261719 251.175781 L 2017.582031 261.015625 L 1997.925781 279.328125 L 1987.574219 289.03125 L 1980.636719 295.511719 "/>
<path style="fill:none;stroke-width:6.9;stroke-linecap:round;stroke-linejoin:round;stroke:rgb(100%,100%,100%);stroke-opacity:1;stroke-miterlimit:4;" d="M 1823.082031 339.339844 L 1823.179688 359.855469 L 1825.722656 444.609375 "/>
<path style="fill:none;stroke-width:6.9;stroke-linecap:round;stroke-linejoin:round;stroke:rgb(100%,100%,100%);stroke-opacity:1;stroke-miterlimit:4;" d="M 393.203125 340.550781 L 393.996094 394.675781 L 394.492188 427.832031 L 544.101562 424.199219 "/>
<path style="fill:none;stroke-width:6.9;stroke-linecap:round;stroke-linejoin:round;stroke:rgb(100%,100%,100%);stroke-opacity:1;stroke-miterlimit:4;" d="M 1775.484375 359.453125 L 1823.179688 359.855469 "/>
<path style="fill:none;stroke-width:6.9;stroke-linecap:round;stroke-linejoin:round;stroke:rgb(100%,100%,100%);stroke-opacity:1;stroke-miterlimit:4;" d="M 198.242188 471.414062 L 229.601562 470.851562 "/>
<path style="fill:none;stroke-width:6.9;stroke-linecap:round;stroke-linejoin:round;stroke:rgb(100%,100%,100%);stroke-opacity:1;stroke-miterlimit:4;" d="M 393.855469 129.585938 L 393.140625 104.363281 L 392.605469 85.433594 L 399.183594 74.195312 "/>
<path style="fill:none;stroke-width:6.9;stroke-linecap:round;stroke-linejoin:round;stroke:rgb(100%,100%,100%);stroke-opacity:1;stroke-miterlimit:4;" d="M 281.253906 15.550781 L 288.585938 4.472656 "/>
<path style="fill:none;stroke-width:6.9;stroke-linecap:round;stroke-linejoin:round;stroke:rgb(100%,100%,100%);stroke-opacity:1;stroke-miterlimit:4;" d="M 392.605469 85.433594 L 315.417969 37.007812 L 281.253906 15.550781 L 258.457031 1.246094 "/>
<path style="fill:none;stroke-width:6.9;stroke-linecap:round;stroke-linejoin:round;stroke:rgb(100%,100%,100%);stroke-opacity:1;stroke-miterlimit:4;" d="M 311.222656 131.304688 L 310.546875 117.296875 L 310.429688 114.6875 L 307.824219 60.265625 L 308.339844 52.789062 L 311.023438 45.34375 L 315.417969 37.007812 "/>
<path style="fill:none;stroke-width:6.9;stroke-linecap:round;stroke-linejoin:round;stroke:rgb(100%,100%,100%);stroke-opacity:1;stroke-miterlimit:4;" d="M 196.730469 344.449219 L 197.011719 359.75 L 197.964844 448.425781 L 198.242188 471.414062 L 197.269531 476.09375 L 193.332031 479.132812 L 188.921875 480.613281 L 91.800781 482.089844 L -163.753906 487.386719 L -169.140625 487.496094 L -178.261719 486.097656 L -186.46875 481.957031 L -192.511719 474.855469 L -196.765625 466.738281 L -198.195312 457.488281 L -198.59375 398.253906 L -198.234375 386.824219 L -197.300781 380.105469 L -196.664062 375.53125 L -194.457031 365.53125 L -190.664062 354.316406 L -186.25 345.550781 L -179.929688 336.894531 L -164.867188 318.851562 "/>
<path style="fill:none;stroke-width:6.9;stroke-linecap:round;stroke-linejoin:round;stroke:rgb(100%,100%,100%);stroke-opacity:1;stroke-miterlimit:4;" d="M 115.667969 398.441406 L -144.992188 407.773438 L -144.457031 449.097656 L 161.238281 441.355469 L 162.3125 397.929688 L 115.667969 398.441406 "/>
<path style="fill:none;stroke-width:3.15;stroke-linecap:round;stroke-linejoin:round;stroke:rgb(100%,100%,100%);stroke-opacity:1;stroke-miterlimit:4;" d="M 104.519531 346.277344 L 104.9375 356.871094 L 105.054688 360.207031 L 105.195312 363.753906 L 106.070312 386.71875 L 115.667969 398.441406 L 122.066406 386.449219 L 122.246094 363.273438 L 122.265625 359.964844 L 122.285156 356.683594 L 122.386719 345.929688 "/>
<path style="fill:none;stroke-width:3.15;stroke-linecap:round;stroke-linejoin:round;stroke:rgb(100%,100%,100%);stroke-opacity:1;stroke-miterlimit:4;" d="M 286.023438 342.675781 L 286.460938 353.1875 L 286.601562 356.683594 L 287.273438 372.925781 L 287.453125 377.523438 L 296.359375 386.261719 L 305.578125 378.195312 L 305.203125 361.011719 L 305.101562 356.199219 L 305.042969 353.054688 L 304.804688 342.300781 "/>
<path style="fill:none;stroke-width:6.9;stroke-linecap:round;stroke-linejoin:round;stroke:rgb(100%,100%,100%);stroke-opacity:1;stroke-miterlimit:4;" d="M 245.0625 430.839844 L 362.199219 428.582031 L 361.800781 384.59375 L 296.359375 386.261719 L 246.136719 387.523438 L 245.0625 430.839844 "/>
<path style="fill:none;stroke-width:6.9;stroke-linecap:round;stroke-linejoin:round;stroke:rgb(100%,100%,100%);stroke-opacity:1;stroke-miterlimit:4;" d="M 197.964844 448.425781 L 230.140625 448.023438 L 245.0625 430.839844 "/>
<path style="fill:none;stroke-width:6.9;stroke-linecap:round;stroke-linejoin:round;stroke:rgb(100%,100%,100%);stroke-opacity:1;stroke-miterlimit:4;" d="M 1980.636719 295.511719 L 1933.339844 322.671875 L 1891.605469 336.652344 L 1842.792969 338.5625 L 1823.082031 339.339844 "/>
<path style="fill:none;stroke-width:6.9;stroke-linecap:round;stroke-linejoin:round;stroke:rgb(100%,100%,100%);stroke-opacity:1;stroke-miterlimit:4;" d="M 1825.722656 444.609375 L 1846.589844 444.230469 L 1980.539062 441.785156 "/>
<path style="fill:none;stroke-width:6.9;stroke-linecap:round;stroke-linejoin:round;stroke:rgb(100%,100%,100%);stroke-opacity:1;stroke-miterlimit:4;" d="M 1980.539062 441.785156 L 1980.636719 295.511719 "/>
<path style="fill:none;stroke-width:6.9;stroke-linecap:round;stroke-linejoin:round;stroke:rgb(100%,100%,100%);stroke-opacity:1;stroke-miterlimit:4;" d="M 1822.644531 310.839844 L 1823.082031 339.339844 "/>
<path style="fill:none;stroke-width:3.15;stroke-linecap:round;stroke-linejoin:round;stroke:rgb(100%,100%,100%);stroke-opacity:1;stroke-miterlimit:4;" d="M 1666.257812 102.078125 L 1666.398438 114.824219 L 1666.714844 144.722656 L 1753.960938 149.132812 L 1772.285156 169.542969 L 1780.628906 178.84375 L 1798.398438 177.824219 L 1806.503906 177.367188 L 1821.648438 176.503906 "/>
<path style="fill:none;stroke-width:6.9;stroke-linecap:round;stroke-linejoin:round;stroke:rgb(100%,100%,100%);stroke-opacity:1;stroke-miterlimit:4;" d="M 1780.628906 178.84375 L 1782.023438 272.65625 "/>
<path style="fill:none;stroke-width:6.9;stroke-linecap:round;stroke-linejoin:round;stroke:rgb(100%,100%,100%);stroke-opacity:1;stroke-miterlimit:4;" d="M 1261.394531 111.058594 L 1261.695312 128.050781 L 1262.347656 156.203125 L 1403.472656 152.898438 L 1401.582031 125.011719 L 1400.429688 107.992188 "/>
<path style="fill:none;stroke-width:6.9;stroke-linecap:round;stroke-linejoin:round;stroke:rgb(100%,100%,100%);stroke-opacity:1;stroke-miterlimit:4;" d="M 1060.929688 115.523438 L 1062.082031 132.648438 L 1063.8125 158.570312 L 1203.304688 154.96875 L 1201.574219 129.800781 L 1200.382812 112.429688 "/>
<path style="fill:none;stroke-width:6.9;stroke-linecap:round;stroke-linejoin:round;stroke:rgb(100%,100%,100%);stroke-opacity:1;stroke-miterlimit:4;" d="M 859.074219 120.011719 L 860.070312 136.980469 L 861.558594 165.589844 L 1000.078125 162.847656 L 998.6875 134.828125 L 997.871094 116.921875 "/>
<path style="fill:none;stroke-width:6.9;stroke-linecap:round;stroke-linejoin:round;stroke:rgb(100%,100%,100%);stroke-opacity:1;stroke-miterlimit:4;" d="M 561.03125 126.0625 L 561.390625 143.59375 L 561.90625 170 L 801.003906 165.183594 L 799.652344 138.539062 L 798.78125 121.277344 "/>
<path style="fill:none;stroke-width:6.9;stroke-linecap:round;stroke-linejoin:round;stroke:rgb(100%,100%,100%);stroke-opacity:1;stroke-miterlimit:4;" d="M 84.089844 136.46875 L 84.804688 150.34375 L 86.175781 176.667969 L 176.441406 175.054688 "/>
<path style="fill:none;stroke-width:6.9;stroke-linecap:round;stroke-linejoin:round;stroke:rgb(100%,100%,100%);stroke-opacity:1;stroke-miterlimit:4;" d="M 86.175781 176.667969 L -57.648438 180.726562 "/>
<path style="fill:none;stroke-width:6.9;stroke-linecap:round;stroke-linejoin:round;stroke:rgb(100%,100%,100%);stroke-opacity:1;stroke-miterlimit:4;" d="M 1760.578125 445.335938 L 1825.722656 444.609375 "/>
<path style="fill:none;stroke-width:6.9;stroke-linecap:round;stroke-linejoin:round;stroke:rgb(100%,100%,100%);stroke-opacity:1;stroke-miterlimit:4;" d="M 1613.414062 103.261719 L 1613.773438 116.464844 L 1615.28125 155.128906 "/>
<path style="fill:none;stroke-width:6.9;stroke-linecap:round;stroke-linejoin:round;stroke:rgb(100%,100%,100%);stroke-opacity:1;stroke-miterlimit:4;" d="M 1458.898438 106.730469 L 1459.632812 124.074219 L 1460.925781 156.714844 "/>
<path style="fill:none;stroke-width:11.4;stroke-linecap:round;stroke-linejoin:round;stroke:rgb(100%,100%,100%);stroke-opacity:1;stroke-miterlimit:4;" d="M 397.058594 340.46875 L 396.679688 326.085938 L 395.488281 279.570312 L 395.03125 260.855469 L 393.140625 184.355469 L 392.207031 146.710938 L 391.652344 129.613281 "/>
<path style="fill:none;stroke-width:11.4;stroke-linecap:round;stroke-linejoin:round;stroke:rgb(100%,100%,100%);stroke-opacity:1;stroke-miterlimit:4;" d="M 1822.644531 310.839844 L 548.59375 337.324219 L 545.390625 337.378906 L 418.023438 340.039062 L 397.058594 340.46875 "/>
<path style="fill:none;stroke-width:11.4;stroke-linecap:round;stroke-linejoin:round;stroke:rgb(100%,100%,100%);stroke-opacity:1;stroke-miterlimit:4;" d="M -133.328125 142.277344 L -116.316406 117.082031 L -112.71875 111.757812 L -98.925781 91.320312 L -57.75 32.460938 L 23.214844 -83.292969 L 30.488281 -91.304688 L 38.042969 -97.652344 L 46.84375 -103.03125 L 59.785156 -110.453125 L 68.308594 -116.769531 L 75.207031 -124.300781 L 166.484375 -252.480469 L 239.140625 -354.550781 L 242.996094 -359.957031 L 255.675781 -377.785156 "/>
<path style="fill:none;stroke-width:11.4;stroke-linecap:round;stroke-linejoin:round;stroke:rgb(100%,100%,100%);stroke-opacity:1;stroke-miterlimit:4;" d="M 397.058594 340.46875 L 393.203125 340.550781 L 381.773438 340.765625 L 304.804688 342.300781 L 286.023438 342.675781 L 196.730469 344.449219 L 175.804688 344.851562 L 122.386719 345.929688 L 104.519531 346.277344 L -48.984375 349.34375 L -67.746094 349.128906 L -83.503906 348.484375 L -96.980469 347.863281 L -106.855469 346.761719 L -117.6875 344.476562 L -127.625 341.035156 L -138.972656 335.871094 L -148.492188 330.738281 L -157.078125 325.546875 L -164.867188 318.851562 "/>
<path style="fill:none;stroke-width:19.4;stroke-linecap:round;stroke-linejoin:round;stroke:rgb(100%,100%,100%);stroke-opacity:1;stroke-miterlimit:4;" d="M 1172.320312 113.046875 L 1200.382812 112.429688 L 1221.25 111.972656 L 1261.394531 111.058594 L 1400.429688 107.992188 L 1443.179688 107.050781 L 1458.898438 106.730469 L 1613.414062 103.261719 L 1666.257812 102.078125 L 1683.546875 101.703125 L 1751.992188 100.167969 L 1762.921875 100.304688 L 1772.898438 101.59375 L 1782.28125 104.175781 L 1789.691406 107.671875 L 1796.925781 112.242188 L 1804.339844 118.507812 L 1809.585938 124.773438 L 1814.773438 132.003906 L 1819.066406 141.710938 L 1821.035156 148.59375 L 1821.925781 157.496094 L 1821.648438 176.503906 L 1822.007812 185.996094 L 1821.867188 228.589844 L 1822.484375 294.921875 L 1822.644531 310.839844 "/>
<path style="fill:none;stroke-width:19.4;stroke-linecap:round;stroke-linejoin:round;stroke:rgb(100%,100%,100%);stroke-opacity:1;stroke-miterlimit:4;" d="M 21.945312 137.8125 L 84.089844 136.46875 L 226.285156 133.347656 "/>
<path style="fill:none;stroke-width:19.4;stroke-linecap:round;stroke-linejoin:round;stroke:rgb(100%,100%,100%);stroke-opacity:1;stroke-miterlimit:4;" d="M 391.652344 129.613281 L 393.855469 129.585938 L 473.273438 127.835938 L 561.03125 126.0625 L 798.78125 121.277344 L 816.984375 120.925781 L 828.472656 120.683594 "/>
<path style="fill:none;stroke-width:19.4;stroke-linecap:round;stroke-linejoin:round;stroke:rgb(100%,100%,100%);stroke-opacity:1;stroke-miterlimit:4;" d="M 892.066406 17.296875 L 878.074219 39.992188 L 841.886719 98.878906 L 828.472656 120.683594 "/>
<path style="fill:none;stroke-width:19.4;stroke-linecap:round;stroke-linejoin:round;stroke:rgb(100%,100%,100%);stroke-opacity:1;stroke-miterlimit:4;" d="M 226.285156 133.347656 L 235.761719 133.132812 L 311.222656 131.304688 "/>
<path style="fill:none;stroke-width:19.4;stroke-linecap:round;stroke-linejoin:round;stroke:rgb(100%,100%,100%);stroke-opacity:1;stroke-miterlimit:4;" d="M -133.328125 142.277344 L -80.484375 140.070312 L 21.945312 137.8125 "/>
<path style="fill:none;stroke-width:19.4;stroke-linecap:round;stroke-linejoin:round;stroke:rgb(100%,100%,100%);stroke-opacity:1;stroke-miterlimit:4;" d="M 311.222656 131.304688 L 391.652344 129.613281 "/>
<path style="fill:none;stroke-width:19.4;stroke-linecap:round;stroke-linejoin:round;stroke:rgb(100%,100%,100%);stroke-opacity:1;stroke-miterlimit:4;" d="M 828.472656 120.683594 L 859.074219 120.011719 L 881.195312 119.5 L 997.871094 116.921875 L 1060.929688 115.523438 L 1172.320312 113.046875 "/>
<path style="fill:none;stroke-width:4;stroke-linecap:butt;stroke-linejoin:round;stroke:rgb(43.921569%,43.921569%,43.921569%);stroke-opacity:1;stroke-miterlimit:4;" d="M 1925.128906 -4.242188 L 1106.382812 13.613281 L 1098.132812 13.425781 L 1092.292969 12.835938 L 1086.191406 12.242188 L 1076.371094 9.6875 L 1066.972656 5.574219 L 1057.75 0.0898438 L 1049.324219 -6.984375 L 1043.839844 -13.25 L 1038.535156 -21.476562 L 1034.421875 -30.296875 L 1030.902344 -39.113281 L 1029.132812 -49.117188 L 1027.761719 -58.742188 L 1028.339844 -69.902344 L 1030.902344 -81.679688 L 1034.617188 -90.6875 L 1039.726562 -100.289062 L 1044.753906 -107.949219 L 1053.636719 -116.957031 L 1063.238281 -124.21875 L 1073.828125 -129.113281 L 1085.195312 -133.039062 L 1095.988281 -134.410156 L 1828.960938 -150.730469 "/><path style="fill:none;stroke-width:6.9;stroke-linecap:round;stroke-linejoin:round;stroke:rgb(100%,100%,100%);stroke-opacity:1;stroke-miterlimit:4;" d="M 1823.179688 359.855469 L 1843.511719 360.019531 L 1855.058594 360.125 "/>
<path style="fill:none;stroke-width:6.9;stroke-linecap:round;stroke-linejoin:round;stroke:rgb(100%,100%,100%);stroke-opacity:1;stroke-miterlimit:4;" d="M 1990.871094 319.066406 L 2003.492188 312.183594 L 2807.972656 293.363281 "/>

<!-- Ocean -->
<path style="stroke:none;fill-rule:evenodd;fill:rgb(66.666667%,82.745098%,87.45098%);fill-opacity:1;" d="M 3500 -50 L 1945.679688 -23.761719 L 1946.316406 31.359375 L 2061.921875 29.183594 L 2065.101562 124.207031 L 2156.757812 123.105469 L 2157.195312 190.808594 L 2877.011719 180.59375 L 2875.324219 439.847656 L -163.039062 503.574219 L -239.015625 975.988281 L 19.359375 944.558594 L 63.242188 930.066406 L 61.433594 910.222656 L 146.113281 909.039062 L 167.933594 939.878906 L 227.335938 938.160156 L 247.050781 1200 L 511.847656 1200 L 504.234375 978.515625 L 577.269531 978 L 596.585938 968.351562 L 774.8125 929688 L 775.765625 234375 L 843.433594 970.398438 L 843.914062 974.941406 L 1031.082031 970.71875 L 1030.425781 938.644531 L 1179.335938 935.875 L 1178.542969 990.480469 L 1173.535156 990.480469 L 1175.402344 1200 L 1294.304688 1200 L 1288.640625 912.132812 L 2225.179688 883.738281 L 3657.78125 854.539062"/>

<!-- Summer Street -->
<path style="fill:none;stroke-width:4.3;stroke-linecap:butt;stroke-linejoin:round;stroke:rgb(0%,0%,0%);stroke-opacity:1;stroke-miterlimit:4;" d="M -306.960938 408.390625 L 9.246094 687.351562 L 24.011719 704.695312 L 53.640625 741.207031 L 79.597656 778.097656 L 88.917969 795.035156 L 97.722656 811.359375 L 115.628906 845.640625 L 126.042969 868.949219 L 134.824219 892.558594 L 145 918.207031 "/>
<path style="fill:none;stroke-width:4.3;stroke-linecap:butt;stroke-linejoin:round;stroke:rgb(0%,0%,0%);stroke-opacity:1;stroke-miterlimit:4;" d="M -386.792969 399.328125 L -201.535156 562.863281 L -32.527344 711.820312 L -1.925781 745.027344 L 24.128906 777.34375 L 45.890625 810.660156 L 63.378906 840.34375 L 78.226562 872.714844 L 85.082031 888.253906 L 91.222656 903.6875 L 97.34375 918.746094 "/>
<path style="fill:none;stroke-width:21;stroke-linecap:butt;stroke-linejoin:round;stroke:rgb(62.745098%,41.960784%,0%);stroke-opacity:1;stroke-miterlimit:4;" d="M 121.429688 918.613281 L 117.753906 908.449219 L 114.632812 900.085938 L 111.078125 891.507812 L 104.558594 875.589844 L 95.417969 854.671875 L 85.71875 835.234375 L 75.464844 816.171875 L 63.855469 797.054688 L 51.554688 778.421875 L 38.199219 759.8125 L 24.429688 742.875 L 10.359375 726.339844 L -4.230469 710.960938 L -19.511719 695.445312 L -36.820312 679.984375 L -52.820312 665.84375 L -186.828125 548.101562 L -314.175781 436.191406 L -360.71875 395.296875 "/>
<path style="fill:none;stroke-width:3.3;stroke-linecap:butt;stroke-linejoin:round;stroke:rgb(100%,100%,100%);stroke-opacity:1;stroke-miterlimit:4;" d="M -306.960938 408.390625 L 9.246094 687.351562 L 24.011719 704.695312 L 53.640625 741.207031 L 79.597656 778.097656 L 88.917969 795.035156 L 97.722656 811.359375 L 115.628906 845.640625 L 126.042969 868.949219 L 134.824219 892.558594 L 145 918.207031 "/>
<path style="fill:none;stroke-width:3.3;stroke-linecap:butt;stroke-linejoin:round;stroke:rgb(100%,100%,100%);stroke-opacity:1;stroke-miterlimit:4;" d="M -386.792969 399.328125 L -201.535156 562.863281 L -32.527344 711.820312 L -1.925781 745.027344 L 24.128906 777.34375 L 45.890625 810.660156 L 63.378906 840.34375 L 78.226562 872.714844 L 85.082031 888.253906 L 91.222656 903.6875 L 97.34375 918.746094 "/>
<path style="fill:none;stroke-width:19;stroke-linecap:round;stroke-linejoin:round;stroke:rgb(98.823529%,83.921569%,64.313725%);stroke-opacity:1;stroke-miterlimit:4;" d="M 121.429688 918.613281 L 117.753906 908.449219 L 114.632812 900.085938 L 111.078125 891.507812 L 104.558594 875.589844 L 95.417969 854.671875 L 85.71875 835.234375 L 75.464844 816.171875 L 63.855469 797.054688 L 51.554688 778.421875 L 38.199219 759.8125 L 24.429688 742.875 L 10.359375 726.339844 L -4.230469 710.960938 L -19.511719 695.445312 L -36.820312 679.984375 L -52.820312 665.84375 L -186.828125 548.101562 L -314.175781 436.191406 L -360.71875 395.296875 "/>
<path style="fill:none;stroke-width:19;stroke-linecap:round;stroke-linejoin:round;stroke:rgb(98.823529%,83.921569%,64.313725%);stroke-opacity:1;stroke-miterlimit:4;" d="M 121.429688 918.613281 L 117.753906 908.449219 L 114.632812 900.085938 L 111.078125 891.507812 L 104.558594 875.589844 L 95.417969 854.671875 L 85.71875 835.234375 L 75.464844 816.171875 L 63.855469 797.054688 L 51.554688 778.421875 L 38.199219 759.8125 L 24.429688 742.875 L 10.359375 726.339844 L -4.230469 710.960938 L -19.511719 695.445312 L -36.820312 679.984375 L -52.820312 665.84375 L -186.828125 548.101562 L -314.175781 436.191406 L -360.71875 395.296875 "/>
<path style="fill:rgb(94.901961%,93.72549%,91.372549%);stroke-width:.1;stroke-linecap:round;stroke-linejoin:round;" d="M 61.433594 910.222656 L 146.113281 909.039062 L 157 1000 Z M"/>


<path style="fill:none;stroke-width:4.3;stroke-linecap:butt;stroke-linejoin:round;stroke:rgb(0%,0%,0%);stroke-opacity:1;stroke-miterlimit:4;" d="M 640.03125 369.777344 L 636.472656 303.203125 "/>
<path style="fill:none;stroke-width:4.3;stroke-linecap:butt;stroke-linejoin:round;stroke:rgb(0%,0%,0%);stroke-opacity:1;stroke-miterlimit:4;" d="M 767.417969 495.535156 L 765.949219 448.9375 L 754.402344 448.9375 L 755.894531 485.289062 L 745.460938 485.503906 L 744.40625 441.246094 "/>
<path style="fill:none;stroke-width:4.3;stroke-linecap:butt;stroke-linejoin:round;stroke:rgb(0%,0%,0%);stroke-opacity:1;stroke-miterlimit:4;" d="M 839.023438 365.609375 L 836.816406 298.902344 "/>
<path style="fill:none;stroke-width:4.3;stroke-linecap:butt;stroke-linejoin:round;stroke:rgb(0%,0%,0%);stroke-opacity:1;stroke-miterlimit:4;" d="M 1040.261719 361.417969 L 1039.804688 294.519531 "/>
<path style="fill:none;stroke-width:4.3;stroke-linecap:butt;stroke-linejoin:round;stroke:rgb(0%,0%,0%);stroke-opacity:1;stroke-miterlimit:4;" d="M 1442.265625 353 L 1439.601562 285.914062 "/>
<path style="fill:none;stroke-width:4.3;stroke-linecap:butt;stroke-linejoin:round;stroke:rgb(0%,0%,0%);stroke-opacity:1;stroke-miterlimit:4;" d="M 1241.085938 357.222656 L 1237.945312 290.242188 "/>
<path style="fill:none;stroke-width:8.5;stroke-linecap:butt;stroke-linejoin:round;stroke:rgb(0%,0%,0%);stroke-opacity:1;stroke-miterlimit:4;" d="M 1855.058594 360.125 L 1871.273438 360.261719 L 1884.507812 360.234375 L 1894.984375 359.695312 L 1901.203125 358.914062 L 1908.554688 357.570312 L 1917.480469 355.769531 L 1927.832031 352.945312 L 1938.722656 349.046875 L 1948.304688 344.828125 L 1957.246094 340.683594 L 1990.871094 319.066406 "/>

<path style="fill:none;stroke-width:3.3;stroke-linecap:butt;stroke-linejoin:round;stroke:rgb(100%,100%,100%);stroke-opacity:1;stroke-miterlimit:4;" d="M 640.03125 369.777344 L 636.472656 303.203125 "/>
<path style="fill:none;stroke-width:3.3;stroke-linecap:butt;stroke-linejoin:round;stroke:rgb(100%,100%,100%);stroke-opacity:1;stroke-miterlimit:4;" d="M 767.417969 495.535156 L 765.949219 448.9375 L 754.402344 448.9375 L 755.894531 485.289062 L 745.460938 485.503906 L 744.40625 441.246094 "/>
<path style="fill:none;stroke-width:3.3;stroke-linecap:butt;stroke-linejoin:round;stroke:rgb(100%,100%,100%);stroke-opacity:1;stroke-miterlimit:4;" d="M 839.023438 365.609375 L 836.816406 298.902344 "/>
<path style="fill:none;stroke-width:3.3;stroke-linecap:butt;stroke-linejoin:round;stroke:rgb(100%,100%,100%);stroke-opacity:1;stroke-miterlimit:4;" d="M 1040.261719 361.417969 L 1039.804688 294.519531 "/>
<path style="fill:none;stroke-width:3.3;stroke-linecap:butt;stroke-linejoin:round;stroke:rgb(100%,100%,100%);stroke-opacity:1;stroke-miterlimit:4;" d="M 1442.265625 353 L 1439.601562 285.914062 "/>
<path style="fill:none;stroke-width:3.3;stroke-linecap:butt;stroke-linejoin:round;stroke:rgb(100%,100%,100%);stroke-opacity:1;stroke-miterlimit:4;" d="M 1241.085938 357.222656 L 1237.945312 290.242188 "/><path style="fill:none;stroke-width:6.9;stroke-linecap:round;stroke-linejoin:round;stroke:rgb(100%,100%,100%);stroke-opacity:1;stroke-miterlimit:4;" d="M 1855.058594 360.125 L 1871.273438 360.261719 L 1884.507812 360.234375 L 1894.984375 359.695312 L 1901.203125 358.914062 L 1908.554688 357.570312 L 1917.480469 355.769531 L 1927.832031 352.945312 L 1938.722656 349.046875 L 1948.304688 344.828125 L 1957.246094 340.683594 L 1990.871094 319.066406 "/>

</g>
</g>
</g>
</svg>
