<?xml version="1.0" standalone="no"?>
<svg width="40" height="40" viewBox="0 0 40 40"
xmlns="http://www.w3.org/2000/svg" version="1.1">
  <path d="
  M 20 19
  l 8 -8
  l -16 0
  l 8 8
  l -2 2
  l -14 -14
  l 2 -2
  l 3 3
  l 22 0
  l 3 -3
  l 2 2
  l -14 14
  z"
  fill="#ffff00" stroke="black" stroke-width=".25"/>
  <path d="
  M 14 18
  l 1.5 0
  l 0 1.5
  l 1.5 0
  l 0 -1.5
  l 6 0
  l 0 1.5
  l 1.5 0
  l 0 -1.5
  l 1.5 0
  l 0 4
  l -1.5 0
  l 0 -1.5
  l -1.5 0
  l 0 1.5
  l -6 0
  l 0 -1.5
  l -1.5 0
  l 0 1.5
  l -1.5 0
  z"
  fill="#8b8b94" stroke="black" stroke-width=".25"/>
  <circle cx="20" cy="20" r="4"
  fill="blue" stroke="black" stroke-width=".25"/>
</svg>